<svg xmlns="http://www.w3.org/2000/svg" xmlns:xlink="http://www.w3.org/1999/xlink" viewBox="0 0 2812.51 1830.45"><defs><style>.cls-1,.cls-6,.cls-7,.cls-8,.cls-9{fill:none;}.cls-2{isolation:isolate;}.cls-3{fill:url(#Безымянный_градиент_8);}.cls-4{mix-blend-mode:overlay;}.cls-5{clip-path:url(#clip-path);}.cls-6,.cls-7,.cls-8,.cls-9{stroke:#fff;stroke-linejoin:round;}.cls-6{stroke-width:0.5px;}.cls-7,.cls-8,.cls-9{stroke-linecap:round;}.cls-7{stroke-width:4px;stroke-dasharray:0 24.06;}.cls-8,.cls-9{stroke-width:3px;}.cls-8{stroke-dasharray:0 13.01;}.cls-9{stroke-dasharray:0 12.97;}.cls-10,.cls-16{opacity:0.4;}.cls-11,.cls-13,.cls-14,.cls-15,.cls-16,.cls-17,.cls-18,.cls-19,.cls-20{mix-blend-mode:color-dodge;}.cls-12{fill:#5ec1c9;}.cls-13{opacity:0.7;}.cls-14{opacity:0.15;}.cls-15,.cls-35{opacity:0.3;}.cls-17{opacity:0.5;}.cls-18{opacity:0.1;}.cls-19{opacity:0.2;}.cls-20{opacity:0.6;}.cls-21,.cls-35{mix-blend-mode:screen;}.cls-22{fill:url(#Безымянный_градиент_8-2);}.cls-23{fill:url(#Безымянный_градиент_8-3);}.cls-24{fill:url(#Безымянный_градиент_8-4);}.cls-25{fill:url(#Безымянный_градиент_8-5);}.cls-26{fill:url(#Безымянный_градиент_8-6);}.cls-27{fill:url(#Безымянный_градиент_8-7);}.cls-28{fill:url(#Безымянный_градиент_8-8);}.cls-29{fill:url(#Безымянный_градиент_8-9);}.cls-30{fill:url(#Безымянный_градиент_8-10);}.cls-31{fill:url(#Безымянный_градиент_8-11);}.cls-32{fill:url(#Безымянный_градиент_8-12);}.cls-33{fill:url(#Безымянный_градиент_8-13);}.cls-34{fill:url(#Безымянный_градиент_8-14);}.cls-36{fill:url(#Безымянный_градиент_8-15);}.cls-37{fill:url(#Безымянный_градиент_8-16);}.cls-38{fill:url(#Безымянный_градиент_8-17);}.cls-39{fill:url(#Безымянный_градиент_8-18);}.cls-40{fill:url(#Безымянный_градиент_8-19);}.cls-41{fill:url(#Безымянный_градиент_8-20);}.cls-42{fill:url(#Безымянный_градиент_8-21);}.cls-43{fill:url(#Безымянный_градиент_8-22);}.cls-44{fill:url(#Безымянный_градиент_8-23);}.cls-45{fill:url(#Безымянный_градиент_8-24);}.cls-46{fill:url(#Безымянный_градиент_8-25);}.cls-47{fill:url(#Безымянный_градиент_8-26);}</style><linearGradient id="Безымянный_градиент_8" x1="749.97" y1="-52.46" x2="2053.9" y2="1786.15" gradientUnits="userSpaceOnUse"><stop offset="0" stop-color="#63c5e5"/><stop offset="1" stop-color="#1d2c4f"/></linearGradient><clipPath id="clip-path" transform="translate(399.35 196.2)"><rect class="cls-1" width="2000" height="1334"/></clipPath><linearGradient id="Безымянный_градиент_8-2" x1="1959.74" y1="1019.29" x2="2094.73" y2="884.3" gradientTransform="translate(1373.16 -1026.51) rotate(90)" xlink:href="#Безымянный_градиент_8"/><linearGradient id="Безымянный_градиент_8-3" x1="1147.24" y1="730.05" x2="1214.55" y2="662.75" gradientTransform="translate(1373.16 -1026.51) rotate(90)" xlink:href="#Безымянный_градиент_8"/><linearGradient id="Безымянный_градиент_8-4" x1="2259.58" y1="-12.69" x2="2326.89" y2="-80" gradientTransform="translate(1373.16 -1026.51) rotate(90)" xlink:href="#Безымянный_градиент_8"/><linearGradient id="Безымянный_градиент_8-5" x1="1499.7" y1="540.9" x2="1567" y2="473.59" gradientTransform="translate(1373.16 -1026.51) rotate(90)" xlink:href="#Безымянный_градиент_8"/><linearGradient id="Безымянный_градиент_8-6" x1="1219.08" y1="35.33" x2="1286.38" y2="-31.98" gradientTransform="translate(1373.16 -1026.51) rotate(90)" xlink:href="#Безымянный_градиент_8"/><linearGradient id="Безымянный_градиент_8-7" x1="1548.84" y1="1004.72" x2="1658.17" y2="895.39" gradientTransform="translate(1373.16 -1026.51) rotate(90)" xlink:href="#Безымянный_градиент_8"/><linearGradient id="Безымянный_градиент_8-8" x1="1904.11" y1="434.14" x2="2008.93" y2="329.31" gradientTransform="translate(1373.16 -1026.51) rotate(90)" xlink:href="#Безымянный_градиент_8"/><linearGradient id="Безымянный_градиент_8-9" x1="1474.88" y1="186.79" x2="1594.06" y2="67.61" gradientTransform="translate(1373.16 -1026.51) rotate(90)" xlink:href="#Безымянный_градиент_8"/><linearGradient id="Безымянный_градиент_8-10" x1="1825.09" y1="-0.62" x2="1944.27" y2="-119.8" gradientTransform="translate(1373.16 -1026.51) rotate(90)" xlink:href="#Безымянный_градиент_8"/><linearGradient id="Безымянный_градиент_8-11" x1="1340.07" y1="685.18" x2="1444.89" y2="580.35" gradientTransform="translate(1373.16 -1026.51) rotate(90)" xlink:href="#Безымянный_градиент_8"/><linearGradient id="Безымянный_градиент_8-12" x1="1976.98" y1="620.01" x2="2075.24" y2="521.74" gradientTransform="translate(1373.16 -1026.51) rotate(90)" xlink:href="#Безымянный_градиент_8"/><linearGradient id="Безымянный_градиент_8-13" x1="2147.48" y1="902" x2="2245.75" y2="803.74" gradientTransform="translate(1373.16 -1026.51) rotate(90)" xlink:href="#Безымянный_градиент_8"/><linearGradient id="Безымянный_градиент_8-14" x1="1682.37" y1="382.34" x2="1810.87" y2="253.84" gradientTransform="translate(1373.16 -1026.51) rotate(90)" xlink:href="#Безымянный_градиент_8"/><linearGradient id="Безымянный_градиент_8-15" x1="1606.5" y1="1393.07" x2="1811.16" y2="1188.41" gradientTransform="translate(1478.22 -1342.02) rotate(90)" xlink:href="#Безымянный_градиент_8"/><linearGradient id="Безымянный_градиент_8-16" x1="1791.21" y1="914.29" x2="1893.5" y2="812" gradientTransform="translate(1478.22 -1342.02) rotate(90)" xlink:href="#Безымянный_градиент_8"/><linearGradient id="Безымянный_градиент_8-17" x1="2090.16" y1="711.57" x2="2192.45" y2="609.29" gradientTransform="translate(1478.22 -1342.02) rotate(90)" xlink:href="#Безымянный_градиент_8"/><linearGradient id="Безымянный_градиент_8-18" x1="1974.29" y1="207.68" x2="2076.58" y2="105.4" gradientTransform="translate(1478.22 -1342.02) rotate(90)" xlink:href="#Безымянный_градиент_8"/><linearGradient id="Безымянный_градиент_8-19" x1="1909.55" y1="780.02" x2="2075.41" y2="614.16" gradientTransform="translate(1478.22 -1342.02) rotate(90)" xlink:href="#Безымянный_градиент_8"/><linearGradient id="Безымянный_градиент_8-20" x1="2120.67" y1="359.77" x2="2279.7" y2="200.73" gradientTransform="translate(1478.22 -1342.02) rotate(90)" xlink:href="#Безымянный_градиент_8"/><linearGradient id="Безымянный_градиент_8-21" x1="2325.52" y1="335.02" x2="2506.27" y2="154.26" gradientTransform="translate(1478.22 -1342.02) rotate(90)" xlink:href="#Безымянный_градиент_8"/><linearGradient id="Безымянный_градиент_8-22" x1="1407.52" y1="341.28" x2="1582.17" y2="166.63" gradientTransform="translate(1214.22 -1268.62) rotate(90)" xlink:href="#Безымянный_градиент_8"/><linearGradient id="Безымянный_градиент_8-23" x1="1588.78" y1="324.16" x2="1747.83" y2="165.12" gradientTransform="translate(1478.22 -1342.02) rotate(90)" xlink:href="#Безымянный_градиент_8"/><linearGradient id="Безымянный_градиент_8-24" x1="1576.62" y1="1037.08" x2="1725.73" y2="887.96" gradientTransform="translate(1478.22 -1342.02) rotate(90)" xlink:href="#Безымянный_градиент_8"/><linearGradient id="Безымянный_градиент_8-25" x1="1677.13" y1="561.34" x2="1826.25" y2="412.22" gradientTransform="translate(1478.22 -1342.02) rotate(90)" xlink:href="#Безымянный_градиент_8"/><linearGradient id="Безымянный_градиент_8-26" x1="1991.25" y1="1194.16" x2="2186.11" y2="999.31" gradientTransform="translate(1478.22 -1342.02) rotate(90)" xlink:href="#Безымянный_градиент_8"/></defs><g class="cls-2"><g id="Capa_1" data-name="Capa 1"><rect class="cls-3" x="399.35" y="196.2" width="2000" height="1334"/><g class="cls-4"><g class="cls-5"><polyline class="cls-6" points="2362.21 813.56 2270.37 509.46 1754.53 957.44 1103.78 958.32 1246.88 460.69 570.09 681.16 238.06 649.3 0.25 719.86 23.5 1164.25 342.29 1549.26 385.64 1343.41 1340.72 1830.2 835.13 1654.61 1738.19 1638.5 1666.14 1431.63 1284.72 1460.04 1038.4 1253.86 900.99 1388.84 554.48 1162.35 406.93 1013.85 624.72 815.9 1757.02 659.46 1291.1 1110.5 1595.11 1093.58 1611.93 1248.52 2027.5 1352.1 2754.02 1308.96 2346.08 1398.75 2033 1095.82 2084.68 890.64 2565.66 1057.75 2362.21 813.56 2812.26 859.66 2565.66 1057.75 2754.02 1308.96 2084.68 890.64 1754.53 957.44"/><polyline class="cls-6" points="2362.21 813.56 2084.68 890.64 2270.37 509.46"/><polyline class="cls-6" points="1754.53 957.44 2027.5 1352.1 2346.08 1398.75"/><polyline class="cls-6" points="2754.02 1308.96 2033 1095.82 1611.93 1248.52 1666.14 1431.63 1038.4 1253.86 1103.78 958.32 554.48 1162.35 835.13 1654.61 1284.72 1460.04 1595.11 1093.58 1757.02 659.46 2033 1095.82 2027.5 1352.1 1738.19 1638.5 1284.72 1460.04 900.99 1388.84 624.72 815.9 238.06 649.3 385.64 1343.41 406.93 1013.85 23.5 1164.25"/><line class="cls-6" x1="1291.1" y1="1110.5" x2="554.48" y2="1162.35"/><line class="cls-6" x1="342.29" y1="1549.26" x2="1284.72" y2="1460.04"/><path class="cls-7" d="M1978.6,140.7c0,185-321.17,334.9-717.35,334.9-952.06-18.4-952-651.42,0-669.8,396.18,0,717.35,149.94,717.35,334.9Z" transform="translate(399.35 196.2)"/><path class="cls-8" d="M777.72,893.35c0,128.16-222.54,232.05-497.06,232.05C-379,1112.65-379,674,280.66,661.29c274.52,0,497.06,103.9,497.06,232.06Z" transform="translate(399.35 196.2)"/><path class="cls-9" d="M952.35,1116.9c0,91.27-158.5,165.27-354,165.27-469.83-9.08-469.79-321.47,0-330.54,195.51,0,354,74,354,165.27Z" transform="translate(399.35 196.2)"/></g></g><g class="cls-10"><g class="cls-11"><polygon class="cls-12" points="1329.97 1148.74 1329.97 1103.18 1391.26 1080.4 1452.54 1103.18 1452.54 1148.74 1391.26 1171.52 1329.97 1148.74"/></g><g class="cls-13"><polygon class="cls-12" points="1266.79 1078.28 1266.79 1032.72 1328.08 1009.94 1389.36 1032.72 1389.36 1078.28 1328.08 1101.07 1266.79 1078.28"/></g><g class="cls-11"><polygon class="cls-12" points="1203.62 1007.83 1203.62 962.27 1264.9 939.49 1326.18 962.27 1326.18 1007.83 1264.9 1030.61 1203.62 1007.83"/></g><g class="cls-14"><polygon class="cls-12" points="1329.97 1007.83 1329.97 962.27 1391.26 939.49 1452.54 962.27 1452.54 1007.83 1391.26 1030.61 1329.97 1007.83"/></g><g class="cls-15"><polygon class="cls-12" points="1203.62 866.91 1203.62 821.35 1264.9 798.57 1326.18 821.35 1326.18 866.91 1264.9 889.7 1203.62 866.91"/></g><g class="cls-15"><polygon class="cls-12" points="1329.97 866.91 1329.97 821.35 1391.26 798.57 1452.54 821.35 1452.54 866.91 1391.26 889.7 1329.97 866.91"/></g><g class="cls-11"><polygon class="cls-12" points="1266.79 796.46 1266.79 750.89 1328.08 728.11 1389.36 750.89 1389.36 796.46 1328.08 819.24 1266.79 796.46"/></g><g class="cls-15"><polygon class="cls-12" points="1203.62 726 1203.62 680.44 1264.9 657.66 1326.18 680.44 1326.18 726 1264.9 748.78 1203.62 726"/></g><g class="cls-13"><polygon class="cls-12" points="1203.62 585.09 1203.62 539.52 1264.9 516.74 1326.18 539.52 1326.18 585.09 1264.9 607.87 1203.62 585.09"/></g><g class="cls-11"><polygon class="cls-12" points="1329.97 585.09 1329.97 539.52 1391.26 516.74 1452.54 539.52 1452.54 585.09 1391.26 607.87 1329.97 585.09"/></g><g class="cls-16"><polygon class="cls-12" points="1266.79 514.63 1266.79 469.07 1328.08 446.29 1389.36 469.07 1389.36 514.63 1328.08 537.41 1266.79 514.63"/></g><g class="cls-14"><polygon class="cls-12" points="1203.62 444.17 1203.62 398.61 1264.9 375.83 1326.18 398.61 1326.18 444.17 1264.9 466.95 1203.62 444.17"/></g><g class="cls-11"><polygon class="cls-12" points="1329.97 444.17 1329.97 398.61 1391.26 375.83 1452.54 398.61 1452.54 444.17 1391.26 466.95 1329.97 444.17"/></g><g class="cls-11"><polygon class="cls-12" points="1266.79 373.72 1266.79 328.15 1328.08 305.37 1389.36 328.15 1389.36 373.72 1328.08 396.5 1266.79 373.72"/></g><g class="cls-17"><polygon class="cls-12" points="1329.97 303.26 1329.97 257.7 1391.26 234.92 1452.54 257.7 1452.54 303.26 1391.26 326.04 1329.97 303.26"/></g><g class="cls-18"><polygon class="cls-12" points="1393.15 1219.2 1393.15 1173.64 1454.43 1150.86 1515.72 1173.64 1515.72 1219.2 1454.43 1241.98 1393.15 1219.2"/></g><g class="cls-15"><polygon class="cls-12" points="1456.33 1148.74 1456.33 1103.18 1517.61 1080.4 1578.9 1103.18 1578.9 1148.74 1517.61 1171.52 1456.33 1148.74"/></g><g class="cls-15"><polygon class="cls-12" points="1393.15 1078.28 1393.15 1032.72 1454.43 1009.94 1515.72 1032.72 1515.72 1078.28 1454.43 1101.07 1393.15 1078.28"/></g><g class="cls-11"><polygon class="cls-12" points="1519.51 1078.28 1519.51 1032.72 1580.79 1009.94 1642.08 1032.72 1642.08 1078.28 1580.79 1101.07 1519.51 1078.28"/></g><g class="cls-11"><polygon class="cls-12" points="1393.15 937.37 1393.15 891.81 1454.43 869.03 1515.72 891.81 1515.72 937.37 1454.43 960.15 1393.15 937.37"/></g><g class="cls-14"><polygon class="cls-12" points="1393.15 796.46 1393.15 750.89 1454.43 728.11 1515.72 750.89 1515.72 796.46 1454.43 819.24 1393.15 796.46"/></g><g class="cls-11"><polygon class="cls-12" points="1519.51 796.46 1519.51 750.89 1580.79 728.11 1642.08 750.89 1642.08 796.46 1580.79 819.24 1519.51 796.46"/></g><g class="cls-15"><polygon class="cls-12" points="1456.33 726 1456.33 680.44 1517.61 657.66 1578.9 680.44 1578.9 726 1517.61 748.78 1456.33 726"/></g><g class="cls-14"><polygon class="cls-12" points="1519.51 655.54 1519.51 609.98 1580.79 587.2 1642.08 609.98 1642.08 655.54 1580.79 678.33 1519.51 655.54"/></g><g class="cls-13"><polygon class="cls-12" points="1456.33 585.09 1456.33 539.52 1517.61 516.74 1578.9 539.52 1578.9 585.09 1517.61 607.87 1456.33 585.09"/></g><g class="cls-16"><polygon class="cls-12" points="1456.33 444.17 1456.33 398.61 1517.61 375.83 1578.9 398.61 1578.9 444.17 1517.61 466.95 1456.33 444.17"/></g><g class="cls-14"><polygon class="cls-12" points="1393.15 373.72 1393.15 328.15 1454.43 305.37 1515.72 328.15 1515.72 373.72 1454.43 396.5 1393.15 373.72"/></g><g class="cls-14"><polygon class="cls-12" points="1519.51 373.72 1519.51 328.15 1580.79 305.37 1642.08 328.15 1642.08 373.72 1580.79 396.5 1519.51 373.72"/></g><g class="cls-17"><polygon class="cls-12" points="1456.33 303.26 1456.33 257.7 1517.61 234.92 1578.9 257.7 1578.9 303.26 1517.61 326.04 1456.33 303.26"/></g><g class="cls-16"><polygon class="cls-12" points="1645.87 1078.28 1645.87 1032.72 1707.15 1009.94 1768.43 1032.72 1768.43 1078.28 1707.15 1101.07 1645.87 1078.28"/></g><g class="cls-15"><polygon class="cls-12" points="1582.69 1007.83 1582.69 962.27 1643.97 939.49 1705.26 962.27 1705.26 1007.83 1643.97 1030.61 1582.69 1007.83"/></g><g class="cls-11"><polygon class="cls-12" points="1645.87 937.37 1645.87 891.81 1707.15 869.03 1768.43 891.81 1768.43 937.37 1707.15 960.15 1645.87 937.37"/></g><g class="cls-15"><polygon class="cls-12" points="1709.05 866.91 1709.05 821.35 1770.33 798.57 1831.61 821.35 1831.61 866.91 1770.33 889.7 1709.05 866.91"/></g><g class="cls-14"><polygon class="cls-12" points="1645.87 796.46 1645.87 750.89 1707.15 728.11 1768.43 750.89 1768.43 796.46 1707.15 819.24 1645.87 796.46"/></g><g class="cls-13"><polygon class="cls-12" points="1582.69 726 1582.69 680.44 1643.97 657.66 1705.26 680.44 1705.26 726 1643.97 748.78 1582.69 726"/></g><g class="cls-15"><polygon class="cls-12" points="1709.05 726 1709.05 680.44 1770.33 657.66 1831.61 680.44 1831.61 726 1770.33 748.78 1709.05 726"/></g><g class="cls-11"><polygon class="cls-12" points="1582.69 585.09 1582.69 539.52 1643.97 516.74 1705.26 539.52 1705.26 585.09 1643.97 607.87 1582.69 585.09"/></g><g class="cls-16"><polygon class="cls-12" points="1709.05 585.09 1709.05 539.52 1770.33 516.74 1831.61 539.52 1831.61 585.09 1770.33 607.87 1709.05 585.09"/></g><g class="cls-15"><polygon class="cls-12" points="1645.87 514.63 1645.87 469.07 1707.15 446.29 1768.43 469.07 1768.43 514.63 1707.15 537.41 1645.87 514.63"/></g><g class="cls-11"><polygon class="cls-12" points="1709.05 444.17 1709.05 398.61 1770.33 375.83 1831.61 398.61 1831.61 444.17 1770.33 466.95 1709.05 444.17"/></g><g class="cls-14"><polygon class="cls-12" points="1645.87 373.72 1645.87 328.15 1707.15 305.37 1768.43 328.15 1768.43 373.72 1707.15 396.5 1645.87 373.72"/></g><g class="cls-17"><polygon class="cls-12" points="1709.05 303.26 1709.05 257.7 1770.33 234.92 1831.61 257.7 1831.61 303.26 1770.33 326.04 1709.05 303.26"/></g><g class="cls-11"><polygon class="cls-12" points="1772.22 1219.2 1772.22 1173.64 1833.51 1150.86 1894.79 1173.64 1894.79 1219.2 1833.51 1241.98 1772.22 1219.2"/></g><g class="cls-18"><polygon class="cls-12" points="1835.4 1148.74 1835.4 1103.18 1896.69 1080.4 1957.97 1103.18 1957.97 1148.74 1896.69 1171.52 1835.4 1148.74"/></g><g class="cls-11"><polygon class="cls-12" points="1772.22 1078.28 1772.22 1032.72 1833.51 1009.94 1894.79 1032.72 1894.79 1078.28 1833.51 1101.07 1772.22 1078.28"/></g><g class="cls-15"><polygon class="cls-12" points="1772.22 937.37 1772.22 891.81 1833.51 869.03 1894.79 891.81 1894.79 937.37 1833.51 960.15 1772.22 937.37"/></g><g class="cls-11"><polygon class="cls-12" points="1835.4 866.91 1835.4 821.35 1896.69 798.57 1957.97 821.35 1957.97 866.91 1896.69 889.7 1835.4 866.91"/></g><g class="cls-11"><polygon class="cls-12" points="1898.58 796.46 1898.58 750.89 1959.87 728.11 2021.15 750.89 2021.15 796.46 1959.87 819.24 1898.58 796.46"/></g><g class="cls-16"><polygon class="cls-12" points="1835.4 726 1835.4 680.44 1896.69 657.66 1957.97 680.44 1957.97 726 1896.69 748.78 1835.4 726"/></g><g class="cls-11"><polygon class="cls-12" points="1772.22 655.54 1772.22 609.98 1833.51 587.2 1894.79 609.98 1894.79 655.54 1833.51 678.33 1772.22 655.54"/></g><g class="cls-11"><polygon class="cls-12" points="1835.4 585.09 1835.4 539.52 1896.69 516.74 1957.97 539.52 1957.97 585.09 1896.69 607.87 1835.4 585.09"/></g><g class="cls-16"><polygon class="cls-12" points="1898.58 514.63 1898.58 469.07 1959.87 446.29 2021.15 469.07 2021.15 514.63 1959.87 537.41 1898.58 514.63"/></g><g class="cls-14"><polygon class="cls-12" points="1835.4 444.17 1835.4 398.61 1896.69 375.83 1957.97 398.61 1957.97 444.17 1896.69 466.95 1835.4 444.17"/></g><g class="cls-11"><polygon class="cls-12" points="445.47 1148.74 445.47 1103.18 506.75 1080.4 568.04 1103.18 568.04 1148.74 506.75 1171.52 445.47 1148.74"/></g><g class="cls-13"><polygon class="cls-12" points="571.83 1148.74 571.83 1103.18 633.11 1080.4 694.39 1103.18 694.39 1148.74 633.11 1171.52 571.83 1148.74"/></g><g class="cls-15"><polygon class="cls-12" points="508.65 1078.28 508.65 1032.72 569.93 1009.94 631.22 1032.72 631.22 1078.28 569.93 1101.07 508.65 1078.28"/></g><g class="cls-15"><polygon class="cls-12" points="571.83 866.91 571.83 821.35 633.11 798.57 694.39 821.35 694.39 866.91 633.11 889.7 571.83 866.91"/></g><g class="cls-18"><polygon class="cls-12" points="445.47 726 445.47 680.44 506.75 657.66 568.04 680.44 568.04 726 506.75 748.78 445.47 726"/></g><g class="cls-11"><polygon class="cls-12" points="508.65 655.54 508.65 609.98 569.93 587.2 631.22 609.98 631.22 655.54 569.93 678.33 508.65 655.54"/></g><g class="cls-18"><polygon class="cls-12" points="571.83 585.09 571.83 539.52 633.11 516.74 694.39 539.52 694.39 585.09 633.11 607.87 571.83 585.09"/></g><g class="cls-15"><polygon class="cls-12" points="508.65 514.63 508.65 469.07 569.93 446.29 631.22 469.07 631.22 514.63 569.93 537.41 508.65 514.63"/></g><g class="cls-11"><polygon class="cls-12" points="445.47 444.17 445.47 398.61 506.75 375.83 568.04 398.61 568.04 444.17 506.75 466.95 445.47 444.17"/></g><g class="cls-18"><polygon class="cls-12" points="508.65 373.72 508.65 328.15 569.93 305.37 631.22 328.15 631.22 373.72 569.93 396.5 508.65 373.72"/></g><g class="cls-17"><polygon class="cls-12" points="571.83 303.26 571.83 257.7 633.11 234.92 694.39 257.7 694.39 303.26 633.11 326.04 571.83 303.26"/></g><g class="cls-11"><polygon class="cls-12" points="761.36 1219.2 761.36 1173.64 822.65 1150.86 883.93 1173.64 883.93 1219.2 822.65 1241.98 761.36 1219.2"/></g><g class="cls-14"><polygon class="cls-12" points="698.18 1148.74 698.18 1103.18 759.47 1080.4 820.75 1103.18 820.75 1148.74 759.47 1171.52 698.18 1148.74"/></g><g class="cls-13"><polygon class="cls-12" points="761.36 1078.28 761.36 1032.72 822.65 1009.94 883.93 1032.72 883.93 1078.28 822.65 1101.07 761.36 1078.28"/></g><g class="cls-15"><polygon class="cls-12" points="635 937.37 635 891.81 696.29 869.03 757.57 891.81 757.57 937.37 696.29 960.15 635 937.37"/></g><g class="cls-11"><polygon class="cls-12" points="761.36 937.37 761.36 891.81 822.65 869.03 883.93 891.81 883.93 937.37 822.65 960.15 761.36 937.37"/></g><g class="cls-11"><polygon class="cls-12" points="761.36 796.46 761.36 750.89 822.65 728.11 883.93 750.89 883.93 796.46 822.65 819.24 761.36 796.46"/></g><g class="cls-16"><polygon class="cls-12" points="698.18 726 698.18 680.44 759.47 657.66 820.75 680.44 820.75 726 759.47 748.78 698.18 726"/></g><g class="cls-15"><polygon class="cls-12" points="635 655.54 635 609.98 696.29 587.2 757.57 609.98 757.57 655.54 696.29 678.33 635 655.54"/></g><g class="cls-13"><polygon class="cls-12" points="761.36 655.54 761.36 609.98 822.65 587.2 883.93 609.98 883.93 655.54 822.65 678.33 761.36 655.54"/></g><g class="cls-19"><polygon class="cls-12" points="635 514.63 635 469.07 696.29 446.29 757.57 469.07 757.57 514.63 696.29 537.41 635 514.63"/></g><g class="cls-11"><polygon class="cls-12" points="761.36 514.63 761.36 469.07 822.65 446.29 883.93 469.07 883.93 514.63 822.65 537.41 761.36 514.63"/></g><g class="cls-15"><polygon class="cls-12" points="698.18 444.17 698.18 398.61 759.47 375.83 820.75 398.61 820.75 444.17 759.47 466.95 698.18 444.17"/></g><g class="cls-20"><polygon class="cls-12" points="635 373.72 635 328.15 696.29 305.37 757.57 328.15 757.57 373.72 696.29 396.5 635 373.72"/></g><g class="cls-13"><polygon class="cls-12" points="824.54 1148.74 824.54 1103.18 885.83 1080.4 947.11 1103.18 947.11 1148.74 885.83 1171.52 824.54 1148.74"/></g><g class="cls-11"><polygon class="cls-12" points="950.9 1148.74 950.9 1103.18 1012.18 1080.4 1073.47 1103.18 1073.47 1148.74 1012.18 1171.52 950.9 1148.74"/></g><g class="cls-16"><polygon class="cls-12" points="824.54 1007.83 824.54 962.27 885.83 939.49 947.11 962.27 947.11 1007.83 885.83 1030.61 824.54 1007.83"/></g><g class="cls-13"><polygon class="cls-12" points="950.9 1007.83 950.9 962.27 1012.18 939.49 1073.47 962.27 1073.47 1007.83 1012.18 1030.61 950.9 1007.83"/></g><g class="cls-15"><polygon class="cls-12" points="887.72 937.37 887.72 891.81 949 869.03 1010.29 891.81 1010.29 937.37 949 960.15 887.72 937.37"/></g><g class="cls-13"><polygon class="cls-12" points="950.9 726 950.9 680.44 1012.18 657.66 1073.47 680.44 1073.47 726 1012.18 748.78 950.9 726"/></g><g class="cls-15"><polygon class="cls-12" points="887.72 655.54 887.72 609.98 949 587.2 1010.29 609.98 1010.29 655.54 949 678.33 887.72 655.54"/></g><g class="cls-18"><polygon class="cls-12" points="824.54 585.09 824.54 539.52 885.83 516.74 947.11 539.52 947.11 585.09 885.83 607.87 824.54 585.09"/></g><g class="cls-15"><polygon class="cls-12" points="887.72 514.63 887.72 469.07 949 446.29 1010.29 469.07 1010.29 514.63 949 537.41 887.72 514.63"/></g><g class="cls-16"><polygon class="cls-12" points="950.9 444.17 950.9 398.61 1012.18 375.83 1073.47 398.61 1073.47 444.17 1012.18 466.95 950.9 444.17"/></g><g class="cls-11"><polygon class="cls-12" points="1140.44 1219.2 1140.44 1173.64 1201.72 1150.86 1263 1173.64 1263 1219.2 1201.72 1241.98 1140.44 1219.2"/></g><g class="cls-15"><polygon class="cls-12" points="1077.26 1148.74 1077.26 1103.18 1138.54 1080.4 1199.82 1103.18 1199.82 1148.74 1138.54 1171.52 1077.26 1148.74"/></g><g class="cls-14"><polygon class="cls-12" points="1014.08 1078.28 1014.08 1032.72 1075.36 1009.94 1136.65 1032.72 1136.65 1078.28 1075.36 1101.07 1014.08 1078.28"/></g><g class="cls-11"><polygon class="cls-12" points="1140.44 1078.28 1140.44 1032.72 1201.72 1009.94 1263 1032.72 1263 1078.28 1201.72 1101.07 1140.44 1078.28"/></g><g class="cls-14"><polygon class="cls-12" points="1014.08 937.37 1014.08 891.81 1075.36 869.03 1136.65 891.81 1136.65 937.37 1075.36 960.15 1014.08 937.37"/></g><g class="cls-11"><polygon class="cls-12" points="1077.26 866.91 1077.26 821.35 1138.54 798.57 1199.82 821.35 1199.82 866.91 1138.54 889.7 1077.26 866.91"/></g><g class="cls-15"><polygon class="cls-12" points="1014.08 796.46 1014.08 750.89 1075.36 728.11 1136.65 750.89 1136.65 796.46 1075.36 819.24 1014.08 796.46"/></g><g class="cls-18"><polygon class="cls-12" points="1140.44 796.46 1140.44 750.89 1201.72 728.11 1263 750.89 1263 796.46 1201.72 819.24 1140.44 796.46"/></g><g class="cls-11"><polygon class="cls-12" points="1014.08 655.54 1014.08 609.98 1075.36 587.2 1136.65 609.98 1136.65 655.54 1075.36 678.33 1014.08 655.54"/></g><g class="cls-18"><polygon class="cls-12" points="1140.44 655.54 1140.44 609.98 1201.72 587.2 1263 609.98 1263 655.54 1201.72 678.33 1140.44 655.54"/></g><g class="cls-11"><polygon class="cls-12" points="1077.26 585.09 1077.26 539.52 1138.54 516.74 1199.82 539.52 1199.82 585.09 1138.54 607.87 1077.26 585.09"/></g><g class="cls-13"><polygon class="cls-12" points="1014.08 514.63 1014.08 469.07 1075.36 446.29 1136.65 469.07 1136.65 514.63 1075.36 537.41 1014.08 514.63"/></g><g class="cls-17"><polygon class="cls-12" points="1140.44 514.63 1140.44 469.07 1201.72 446.29 1263 469.07 1263 514.63 1201.72 537.41 1140.44 514.63"/></g><g class="cls-13"><polygon class="cls-12" points="1014.08 373.72 1014.08 328.15 1075.36 305.37 1136.65 328.15 1136.65 373.72 1075.36 396.5 1014.08 373.72"/></g><g class="cls-15"><polygon class="cls-12" points="1140.44 373.72 1140.44 328.15 1201.72 305.37 1263 328.15 1263 373.72 1201.72 396.5 1140.44 373.72"/></g><g class="cls-17"><polygon class="cls-12" points="1077.26 303.26 1077.26 257.7 1138.54 234.92 1199.82 257.7 1199.82 303.26 1138.54 326.04 1077.26 303.26"/></g></g><g class="cls-21"><path class="cls-22" d="M421.36,1073.87a12.82,12.82,0,0,1-4.35-.74l-90.87-33.78c-2.68-1-4.34-2.86-4.34-4.85V966.94c0-2,1.66-3.85,4.34-4.85L417,928.32a13,13,0,0,1,8.7,0l90.87,33.77c2.68,1,4.34,2.86,4.34,4.85v67.56c0,2-1.66,3.85-4.34,4.85l-90.87,33.78A12.78,12.78,0,0,1,421.36,1073.87Zm0-142.94a5.05,5.05,0,0,0-1.74.3L328.77,965c-1.08.4-1.74,1.14-1.74,1.93v67.56a2.28,2.28,0,0,0,1.74,1.93l90.86,33.78a5.2,5.2,0,0,0,3.46,0L514,1036.43a2.29,2.29,0,0,0,1.74-1.93V966.94c0-.79-.67-1.53-1.74-1.93l-90.87-33.78A5,5,0,0,0,421.36,930.93Z" transform="translate(399.35 196.2)"/></g><g class="cls-21"><path class="cls-23" d="M676.76,190.86a8.1,8.1,0,0,1-2.79-.48l-44.23-16.45c-1.71-.63-2.78-1.82-2.78-3.11V137.94c0-1.28,1.06-2.47,2.78-3.11L674,118.39a8.41,8.41,0,0,1,5.58,0l44.23,16.45c1.72.64,2.79,1.83,2.79,3.11v32.88c0,1.29-1.07,2.48-2.79,3.12l-44.23,16.44A8.1,8.1,0,0,1,676.76,190.86Zm.17-69.56-44.57,16.44-.18,33.08,44.41,16.64L721.16,171l.18-33.08c0-.08-.07-.15-.18-.2Z" transform="translate(399.35 196.2)"/></g><g class="cls-21"><path class="cls-24" d="M1419.51,1303.2a8.06,8.06,0,0,1-2.79-.48l-44.24-16.44c-1.72-.64-2.78-1.84-2.78-3.11v-32.89c0-1.28,1.06-2.47,2.78-3.11l44.23-16.44a8.38,8.38,0,0,1,5.59,0l44.24,16.44c1.71.64,2.78,1.83,2.78,3.11v32.89c0,1.27-1.07,2.47-2.78,3.11l-44.24,16.44A8.1,8.1,0,0,1,1419.51,1303.2Zm.16-69.56-44.57,16.45-.17,33.08,44.4,16.63,44.58-16.44.18-33.08c0-.08-.07-.15-.18-.19Z" transform="translate(399.35 196.2)"/></g><g class="cls-21"><path class="cls-25" d="M865.92,543.31a8.06,8.06,0,0,1-2.79-.48l-44.24-16.44c-1.71-.64-2.78-1.83-2.78-3.11V490.39c0-1.28,1.07-2.47,2.79-3.11l44.22-16.44a8.38,8.38,0,0,1,5.59,0l44.23,16.44c1.71.64,2.78,1.83,2.78,3.11v32.89c0,1.28-1.07,2.47-2.79,3.11l-44.22,16.44A8.14,8.14,0,0,1,865.92,543.31Zm.17-69.55L821.52,490.2l-.18,33.08,44.41,16.64,44.57-16.45.18-33.08c0-.08-.07-.15-.18-.19Z" transform="translate(399.35 196.2)"/></g><g class="cls-21"><path class="cls-26" d="M1371.49,262.69a8.05,8.05,0,0,1-2.79-.47l-44.24-16.45c-1.71-.64-2.78-1.82-2.78-3.11V209.78c0-1.28,1.07-2.48,2.79-3.12l44.22-16.44a8.38,8.38,0,0,1,5.59,0l44.23,16.45c1.71.63,2.78,1.83,2.78,3.11v32.88c0,1.29-1.07,2.47-2.79,3.11l-44.22,16.45A8.38,8.38,0,0,1,1371.49,262.69Zm.17-69.55-44.57,16.44-.18,33.08,44.41,16.64,44.57-16.45.18-33.07a.22.22,0,0,0-.18-.19Z" transform="translate(399.35 196.2)"/></g><g class="cls-21"><path class="cls-27" d="M423.11,636.24a10.88,10.88,0,0,1-3.76-.65l-73.19-27.2c-2.32-.87-3.76-2.47-3.76-4.19V549.78c0-1.72,1.44-3.33,3.76-4.19l73.19-27.21a11.38,11.38,0,0,1,7.51,0l73.2,27.21c2.31.86,3.75,2.47,3.75,4.19V604.2c0,1.72-1.44,3.32-3.75,4.19l-73.19,27.2A11,11,0,0,1,423.11,636.24Zm0-115.14a3.29,3.29,0,0,0-1.14.2l-73.19,27.21a1.51,1.51,0,0,0-1.15,1.27V604.2a1.51,1.51,0,0,0,1.15,1.27L422,632.68a3.4,3.4,0,0,0,2.29,0l73.18-27.21a1.5,1.5,0,0,0,1.14-1.27V549.78a1.5,1.5,0,0,0-1.14-1.27L424.25,521.3A3.33,3.33,0,0,0,423.11,521.1Z" transform="translate(399.35 196.2)"/></g><g class="cls-21"><path class="cls-28" d="M991.44,986.81a10.58,10.58,0,0,1-3.66-.63l-70.08-26c-2.25-.83-3.65-2.39-3.65-4.07V904c0-1.67,1.4-3.24,3.66-4.07l70.07-26.06a11,11,0,0,1,7.31,0l70.09,26.06c2.24.83,3.65,2.4,3.65,4.07v52.11c0,1.68-1.41,3.24-3.66,4.07l-70.08,26A10.57,10.57,0,0,1,991.44,986.81Zm0-110.25a2.94,2.94,0,0,0-1,.18l-70.08,26a1.38,1.38,0,0,0-1.05,1.16v52.11c0,.48.4.92,1,1.16l70.09,26a3.07,3.07,0,0,0,2.07,0l70.08-26c.65-.24,1-.68,1-1.16V904a1.39,1.39,0,0,0-1-1.16l-70.09-26A3,3,0,0,0,991.43,876.56Z" transform="translate(399.35 196.2)"/></g><g class="cls-21"><path class="cls-29" d="M1246,572.55a11.41,11.41,0,0,1-4-.69l-80-29.73c-2.45-.91-4-2.61-4-4.44V478.23c0-1.83,1.52-3.53,4-4.45l80-29.72a11.85,11.85,0,0,1,8,0l80,29.72c2.45.92,4,2.62,4,4.45v59.46c0,1.83-1.52,3.53-4,4.44l-80,29.73A11.5,11.5,0,0,1,1246,572.55Zm0-125.81a3.85,3.85,0,0,0-1.36.23l-80,29.73c-.85.32-1.37.9-1.37,1.53v59.46c0,.63.52,1.21,1.37,1.52l80,29.74a4.12,4.12,0,0,0,2.73,0l80-29.74c.85-.31,1.37-.89,1.37-1.52V478.23a1.81,1.81,0,0,0-1.37-1.53l-80-29.73A4.1,4.1,0,0,0,1246,446.74Z" transform="translate(399.35 196.2)"/></g><g class="cls-21"><path class="cls-30" d="M1433.37,922.75a11.4,11.4,0,0,1-4-.68l-80-29.73c-2.46-.91-4-2.62-4-4.44V828.44c0-1.83,1.52-3.53,4-4.45l80-29.72a11.85,11.85,0,0,1,8,0l80,29.72c2.45.92,4,2.62,4,4.45V887.9c0,1.83-1.52,3.53-4,4.44l-80,29.73A11.5,11.5,0,0,1,1433.37,922.75Zm0-125.8a3.85,3.85,0,0,0-1.36.23l-80,29.73a1.8,1.8,0,0,0-1.37,1.53V887.9a1.82,1.82,0,0,0,1.37,1.53l80,29.72a4.06,4.06,0,0,0,2.73,0l80-29.72c.84-.32,1.37-.9,1.37-1.53V828.44a1.81,1.81,0,0,0-1.37-1.53l-80-29.73A4.1,4.1,0,0,0,1433.37,797Z" transform="translate(399.35 196.2)"/></g><g class="cls-21"><path class="cls-31" d="M740.39,422.77a10.53,10.53,0,0,1-3.65-.63l-70.08-26.05c-2.25-.83-3.65-2.39-3.65-4.07V339.91c0-1.67,1.4-3.24,3.66-4.07l70.07-26a10.89,10.89,0,0,1,7.3,0l70.09,26c2.25.83,3.66,2.4,3.66,4.07V392c0,1.68-1.41,3.24-3.66,4.07l-70.08,26.05A10.63,10.63,0,0,1,740.39,422.77Zm0-110.25a2.94,2.94,0,0,0-1,.18l-70.08,26.05a1.38,1.38,0,0,0-1,1.16V392c0,.48.4.92,1,1.16l70.09,26.05a3.22,3.22,0,0,0,2.08,0l70.07-26.05c.65-.24,1-.68,1-1.16V339.91a1.39,1.39,0,0,0-1-1.16L741.43,312.7A3,3,0,0,0,740.39,312.52Z" transform="translate(399.35 196.2)"/></g><g class="cls-21"><path class="cls-32" d="M802.28,1052.85a10.18,10.18,0,0,1-3.5-.6l-65.56-24.37c-2.16-.8-3.5-2.3-3.5-3.91V975.23c0-1.61,1.34-3.11,3.51-3.91L798.78,947a10.45,10.45,0,0,1,7,0l65.58,24.38c2.16.81,3.49,2.3,3.49,3.91V1024c0,1.6-1.33,3.1-3.49,3.91l-65.57,24.37A10.27,10.27,0,0,1,802.28,1052.85Zm0-103.14a2.6,2.6,0,0,0-.89.15l-65.56,24.38c-.56.2-.9.58-.9,1V1024a1.17,1.17,0,0,0,.89,1l65.57,24.37a2.59,2.59,0,0,0,1.78,0L868.73,1025c.56-.2.9-.58.9-1V975.23c0-.41-.34-.79-.9-1l-65.56-24.38A2.58,2.58,0,0,0,802.29,949.71Z" transform="translate(399.35 196.2)"/></g><g class="cls-21"><path class="cls-33" d="M520.3,1223.36a10,10,0,0,1-3.51-.61l-65.57-24.36c-2.16-.81-3.5-2.31-3.5-3.91v-48.74c0-1.61,1.34-3.11,3.5-3.91l65.57-24.37a10.39,10.39,0,0,1,7,0l65.58,24.37c2.16.8,3.49,2.3,3.49,3.91v48.74c0,1.6-1.33,3.1-3.49,3.9l-65.58,24.38A10.16,10.16,0,0,1,520.3,1223.36Zm0-103.14a2.58,2.58,0,0,0-.88.15l-65.57,24.37c-.55.21-.9.59-.9,1v48.74c0,.4.35.78.9,1l65.57,24.37a2.54,2.54,0,0,0,1.76,0l65.57-24.37c.55-.21.9-.59.9-1v-48.74c0-.41-.34-.79-.9-1l-65.57-24.37A2.58,2.58,0,0,0,520.29,1120.22Z" transform="translate(399.35 196.2)"/></g><g class="cls-21"><path class="cls-34" d="M1055.06,789.74a12.14,12.14,0,0,1-4.19-.72l-86.41-32.11c-2.58-1-4.19-2.76-4.19-4.69V688c0-1.93,1.61-3.72,4.19-4.69l86.41-32.11a12.49,12.49,0,0,1,8.4,0l86.4,32.11c2.59,1,4.2,2.76,4.2,4.69v64.23c0,1.93-1.61,3.73-4.21,4.69L1059.28,789A12.35,12.35,0,0,1,1055.06,789.74Zm0-135.91a4.56,4.56,0,0,0-1.58.27l-86.4,32.12a2.11,2.11,0,0,0-1.6,1.77v64.23a2.11,2.11,0,0,0,1.6,1.77l86.4,32.12a4.73,4.73,0,0,0,3.17,0L1143.05,754a2.09,2.09,0,0,0,1.59-1.77V688a2.09,2.09,0,0,0-1.59-1.77l-86.4-32.12A4.56,4.56,0,0,0,1055.07,653.83Z" transform="translate(399.35 196.2)"/></g><g class="cls-35"><path class="cls-36" d="M187.48,477.73a19.7,19.7,0,0,1-6.79-1.17L43.25,425.47c-4.18-1.56-6.78-4.45-6.78-7.56V315.72c0-3.11,2.6-6,6.77-7.56l137.46-51.1a20.35,20.35,0,0,1,13.56,0l137.45,51.09c4.18,1.56,6.78,4.46,6.78,7.57V417.91c0,3.11-2.6,6-6.78,7.56L194.26,476.56A19.56,19.56,0,0,1,187.48,477.73Zm0-216.22a7.19,7.19,0,0,0-2.42.41L47.61,313c-1.49.55-2.42,1.59-2.42,2.7V417.91c0,1.11.93,2.14,2.42,2.7L185.06,471.7a7.15,7.15,0,0,0,4.83,0l137.46-51.09c1.49-.56,2.42-1.59,2.42-2.7V315.72c0-1.11-.93-2.15-2.43-2.71L189.9,261.92A7.19,7.19,0,0,0,187.48,261.51Z" transform="translate(399.35 196.2)"/></g><g class="cls-35"><path class="cls-37" d="M615.08,555.77a12.81,12.81,0,0,1-4.43-.76l-66.9-24.87c-2.73-1-4.42-2.91-4.42-4.93V475.47c0-2,1.69-3.92,4.42-4.93l66.9-24.87a13.18,13.18,0,0,1,8.85,0l66.9,24.87c2.73,1,4.42,2.9,4.42,4.93v49.74c0,2-1.69,3.91-4.41,4.93L619.49,555A12.62,12.62,0,0,1,615.08,555.77Zm0-105.24-67,24.87-.06,49.81,67,24.94,67-24.87.07-49.81a.08.08,0,0,0-.07-.07Z" transform="translate(399.35 196.2)"/></g><g class="cls-35"><path class="cls-38" d="M817.79,854.72a12.71,12.71,0,0,1-4.42-.76l-66.91-24.87c-2.72-1-4.42-2.9-4.42-4.93V774.42c0-2,1.7-3.92,4.42-4.93l66.91-24.87a13.21,13.21,0,0,1,8.84,0l66.9,24.87c2.73,1,4.42,2.9,4.42,4.93v49.74c0,2-1.69,3.92-4.42,4.93L822.21,854A13,13,0,0,1,817.79,854.72Zm.06-105.24-67,24.87-.06,49.81,67,24.94,67-24.87.06-49.81a.07.07,0,0,0-.06-.07Z" transform="translate(399.35 196.2)"/></g><g class="cls-35"><path class="cls-39" d="M1321.68,738.85a12.75,12.75,0,0,1-4.42-.76l-66.91-24.87c-2.72-1-4.41-2.9-4.41-4.93V658.54c0-2,1.69-3.91,4.41-4.92l66.91-24.87a13.21,13.21,0,0,1,8.84,0l66.9,24.87c2.73,1,4.42,2.9,4.42,4.92v49.75c0,2-1.69,3.92-4.42,4.93l-66.9,24.87A13,13,0,0,1,1321.68,738.85Zm.06-105.24-67,24.87-.06,49.81,67,24.94,67-24.87.06-49.82a.07.07,0,0,0-.06-.06Z" transform="translate(399.35 196.2)"/></g><g class="cls-35"><path class="cls-40" d="M781.13,740.35a17.15,17.15,0,0,1-5.89-1l-110.7-41.16c-3.64-1.35-5.89-3.86-5.89-6.56V609.31c0-2.7,2.25-5.22,5.89-6.56l110.7-41.16a17.61,17.61,0,0,1,11.77,0l110.71,41.16c3.63,1.34,5.89,3.86,5.89,6.56v82.31c0,2.7-2.26,5.21-5.89,6.56L787,739.34A17.1,17.1,0,0,1,781.13,740.35Zm0-174.16a4.54,4.54,0,0,0-1.52.26L668.9,607.61c-.95.35-1.54,1-1.54,1.7v82.31c0,.7.59,1.35,1.54,1.7l110.7,41.16a4.59,4.59,0,0,0,3.06,0l110.7-41.16c.95-.35,1.53-1,1.53-1.7V609.31c0-.7-.58-1.35-1.53-1.7l-110.7-41.16A4.61,4.61,0,0,0,781.12,566.19Z" transform="translate(399.35 196.2)"/></g><g class="cls-35"><path class="cls-41" d="M1198,944.35a16.45,16.45,0,0,1-5.72-1l-106-39.41c-3.54-1.31-5.73-3.76-5.73-6.39V818.76c0-2.63,2.19-5.08,5.73-6.39l106-39.41a17.2,17.2,0,0,1,11.46,0l106,39.41c3.53,1.31,5.73,3.76,5.73,6.39v78.81c0,2.63-2.2,5.08-5.73,6.39l-106,39.41A16.6,16.6,0,0,1,1198,944.35Zm0-166.76a3.84,3.84,0,0,0-1.39.24l-106,39.4a1.81,1.81,0,0,0-1.37,1.53v78.81a1.81,1.81,0,0,0,1.37,1.53l106,39.41a4.09,4.09,0,0,0,2.76,0l106-39.41a1.8,1.8,0,0,0,1.37-1.53V818.76a1.8,1.8,0,0,0-1.37-1.53l-106-39.41A3.94,3.94,0,0,0,1198,777.59Z" transform="translate(399.35 196.2)"/></g><g class="cls-35"><path class="cls-42" d="M1233.58,1171.83a18.13,18.13,0,0,1-6.23-1.07l-121-45c-3.85-1.43-6.24-4.09-6.24-7V1028.9c0-2.85,2.39-5.51,6.24-6.94l121-45a18.63,18.63,0,0,1,12.46,0l121,45c3.84,1.42,6.23,4.09,6.23,6.94v89.94c0,2.86-2.39,5.53-6.23,7l-121,45A18.21,18.21,0,0,1,1233.58,1171.83Zm0-190.3a5.58,5.58,0,0,0-1.88.32l-121,45a2.48,2.48,0,0,0-1.87,2.08v89.94a2.48,2.48,0,0,0,1.87,2.09l121,45a5.61,5.61,0,0,0,3.75,0l121-45a2.47,2.47,0,0,0,1.87-2.09V1028.9a2.47,2.47,0,0,0-1.87-2.08l-121-45A5.57,5.57,0,0,0,1233.58,981.53Z" transform="translate(399.35 196.2)"/></g><g class="cls-35"><path class="cls-43" d="M960.27,320.87a17.7,17.7,0,0,1-6.1-1.05l-116.75-43.4c-3.76-1.4-6.1-4-6.1-6.79V182.81c0-2.79,2.34-5.39,6.1-6.79l116.76-43.4a18.19,18.19,0,0,1,12.18,0L1083.12,176c3.75,1.4,6.09,4,6.09,6.79v86.82c0,2.79-2.34,5.39-6.1,6.79l-116.76,43.4A17.54,17.54,0,0,1,960.27,320.87Zm0-183.69a4.9,4.9,0,0,0-1.72.3L841.78,180.89c-1.08.39-1.74,1.13-1.74,1.92v86.82a2.27,2.27,0,0,0,1.73,1.92L958.54,315a5.11,5.11,0,0,0,3.45,0l116.77-43.41a2.28,2.28,0,0,0,1.74-1.92V182.81a2.28,2.28,0,0,0-1.73-1.92L962,137.48A5,5,0,0,0,960.27,137.18Z" transform="translate(399.35 196.2)"/></g><g class="cls-35"><path class="cls-44" d="M1233.58,412.47a16.51,16.51,0,0,1-5.73-1l-106-39.41c-3.53-1.31-5.73-3.76-5.73-6.39V286.88c0-2.63,2.2-5.08,5.73-6.39l106-39.41a17.2,17.2,0,0,1,11.46,0l106,39.41c3.53,1.31,5.73,3.76,5.73,6.39v78.81c0,2.63-2.2,5.08-5.73,6.39l-106,39.41A16.59,16.59,0,0,1,1233.58,412.47Zm0-166.76a3.87,3.87,0,0,0-1.37.23l-106,39.41a1.81,1.81,0,0,0-1.37,1.53v78.81a1.81,1.81,0,0,0,1.37,1.53l106,39.41a4,4,0,0,0,2.74,0l106-39.41a1.81,1.81,0,0,0,1.37-1.53V286.88a1.81,1.81,0,0,0-1.37-1.53l-106-39.41A3.94,3.94,0,0,0,1233.58,245.71Z" transform="translate(399.35 196.2)"/></g><g class="cls-35"><path class="cls-45" d="M515.7,390a15.94,15.94,0,0,1-5.5-1L411,352.16c-3.4-1.27-5.5-3.62-5.5-6.14V272.29c0-2.52,2.1-4.87,5.5-6.13l99.18-36.87a16.42,16.42,0,0,1,11,0l99.18,36.87c3.39,1.26,5.49,3.61,5.49,6.13V346c0,2.52-2.1,4.87-5.49,6.14L521.2,389A16,16,0,0,1,515.7,390Zm0-156a3.33,3.33,0,0,0-1.14.2L415.38,271a1.51,1.51,0,0,0-1.14,1.27V346a1.51,1.51,0,0,0,1.14,1.28l99.18,36.86a3.43,3.43,0,0,0,2.28,0L616,347.3a1.51,1.51,0,0,0,1.14-1.28V272.29A1.51,1.51,0,0,0,616,271l-99.18-36.87A3.33,3.33,0,0,0,515.7,234Z" transform="translate(399.35 196.2)"/></g><g class="cls-35"><path class="cls-46" d="M991.43,490.49a16,16,0,0,1-5.5-.95l-99.17-36.87c-3.39-1.25-5.5-3.61-5.5-6.13V372.81c0-2.53,2.11-4.88,5.5-6.14l99.17-36.87a16.51,16.51,0,0,1,11,0l99.17,36.87c3.39,1.26,5.5,3.61,5.5,6.14v73.73c0,2.52-2.11,4.88-5.5,6.13l-99.17,36.87A16,16,0,0,1,991.43,490.49Zm0-156a3.13,3.13,0,0,0-1.15.2l-99.17,36.86a1.5,1.5,0,0,0-1.14,1.28v73.73a1.5,1.5,0,0,0,1.14,1.27l99.17,36.87a3.46,3.46,0,0,0,2.29,0l99.17-36.87a1.5,1.5,0,0,0,1.14-1.27V372.81a1.5,1.5,0,0,0-1.14-1.28l-99.17-36.86A3.11,3.11,0,0,0,991.44,334.47Z" transform="translate(399.35 196.2)"/></g><g class="cls-35"><path class="cls-47" d="M381.48,852.26a19,19,0,0,1-6.55-1.13L244.24,802.55c-4.05-1.5-6.56-4.31-6.56-7.31V698.08c0-3,2.51-5.81,6.56-7.31l130.69-48.58a19.6,19.6,0,0,1,13.11,0l130.69,48.58c4,1.5,6.55,4.3,6.55,7.31v97.16c0,3-2.51,5.81-6.55,7.31L388,851.13A19,19,0,0,1,381.48,852.26Zm0-205.59a6.19,6.19,0,0,0-2.19.38L248.6,695.63a2.89,2.89,0,0,0-2.2,2.45v97.16a2.89,2.89,0,0,0,2.2,2.45l130.69,48.58a6.55,6.55,0,0,0,4.39,0l130.69-48.58a2.91,2.91,0,0,0,2.2-2.45V698.08a2.91,2.91,0,0,0-2.2-2.45L383.68,647.05A6.44,6.44,0,0,0,381.48,646.67Z" transform="translate(399.35 196.2)"/></g><rect class="cls-1" x="581" y="303.44" width="1380.6" height="1257.16"/></g></g></svg>