<svg xmlns="http://www.w3.org/2000/svg" viewBox="0 0 1882 2116.31" width="1882" height="2116.31005859375"><defs><style>.cls-1,.cls-2{fill:#41b6ff;}.cls-1{fill-rule:evenodd;}</style></defs><g id="Capa_2" data-name="Capa 2"><g id="Layer_1" data-name="Layer 1"><polygon class="cls-1 svg-elem-1" points="1364.94 217.69 1176.41 326.54 987.88 435.39 987.88 217.69 987.88 0 1176.41 108.85 1364.94 217.69"></polygon><polygon class="cls-1 svg-elem-2" points="518.68 217.69 707.21 326.54 895.74 435.39 895.74 217.69 895.74 0 707.21 108.85 518.68 217.69"></polygon><polygon class="cls-1 svg-elem-3" points="472.61 297.49 472.61 515.18 472.61 732.88 661.14 624.03 849.67 515.18 661.14 406.33 472.61 297.49"></polygon><polygon class="cls-1 svg-elem-4" points="517.06 813.61 705.59 922.46 894.12 1031.31 894.12 813.61 894.12 595.92 705.59 704.76 517.06 813.61"></polygon><polygon class="cls-1 svg-elem-5" points="1363.31 813.61 1174.78 922.46 986.25 1031.31 986.25 813.61 986.25 595.92 1174.78 704.76 1363.31 813.61"></polygon><polygon class="cls-1 svg-elem-6" points="1032.32 1111.1 1220.85 1002.25 1409.38 893.4 1409.38 1111.1 1409.38 1328.79 1220.85 1219.94 1032.32 1111.1"></polygon><polygon class="cls-1 svg-elem-7" points="986.25 1190.89 986.25 1408.58 986.25 1626.28 1174.78 1517.43 1363.31 1408.58 1174.78 1299.73 986.25 1190.89"></polygon><polygon class="cls-1 svg-elem-8" points="894.12 1192.27 894.12 1409.97 894.12 1627.66 705.59 1518.82 517.06 1409.97 705.59 1301.12 894.12 1192.27"></polygon><path class="cls-2 svg-elem-9" d="M166.82,1779.4a104.38,104.38,0,0,1-27.51-14.82,67.1,67.1,0,0,1-18.38-21.18q-6.71-12.23-6.7-28.33a63.09,63.09,0,0,1,7.1-29.83,74.88,74.88,0,0,1,19-23.27,87.21,87.21,0,0,1,27.21-15,97.52,97.52,0,0,1,32-5.27,116.36,116.36,0,0,1,23.55,2.38,100.36,100.36,0,0,1,21.73,7.06,82.47,82.47,0,0,1,18.48,11.64,63.5,63.5,0,0,1,13.81,16.1,12.7,12.7,0,0,1,2.13,5.67,16.14,16.14,0,0,1-.4,5.67,19.51,19.51,0,0,1-2.14,5.17,20.73,20.73,0,0,1-3.25,4.18,16.54,16.54,0,0,1-5,3.28,20.06,20.06,0,0,1-6.3,1.59,23.11,23.11,0,0,1-7-.5,18.12,18.12,0,0,1-6.91-3.18q-5.69-5-10.76-8.65a55,55,0,0,0-10.66-6.07,57.5,57.5,0,0,0-12-3.58,81.49,81.49,0,0,0-14.72-1.19,64.37,64.37,0,0,0-17.37,2.29,45.92,45.92,0,0,0-14.41,6.66,34,34,0,0,0-9.85,10.54,26.74,26.74,0,0,0-3.66,13.92q0,8.94,4.77,14.71a37.4,37.4,0,0,0,12.8,9.65,93.6,93.6,0,0,0,18.68,6.46q10.66,2.6,22.64,5.17a258,258,0,0,1,27.92,9.15A96,96,0,0,1,266,1773.53a65.32,65.32,0,0,1,17.16,20.19q6.49,11.82,6.5,28.53a70.06,70.06,0,0,1-7,31.22,76,76,0,0,1-19.29,24.76,92.53,92.53,0,0,1-28.83,16.41,103.94,103.94,0,0,1-35.44,6,107.83,107.83,0,0,1-29.14-3.88,110.11,110.11,0,0,1-25.49-10.53,93.19,93.19,0,0,1-20.3-15.62,68.41,68.41,0,0,1-13.41-19.09,22.25,22.25,0,0,1-2.63-9,20.36,20.36,0,0,1,1-7.76,16.12,16.12,0,0,1,3.76-6.07,24.91,24.91,0,0,1,5.78-4.37q7.52-4,14.12-1.59t13.5,10.94a58.11,58.11,0,0,0,22.34,20.28q13.82,7.16,32.08,7.16a66.77,66.77,0,0,0,17.67-2.39,52.2,52.2,0,0,0,15.64-7.06,38.22,38.22,0,0,0,11.17-11.53,29,29,0,0,0,4.26-15.61q0-9.15-4.36-15.11a35.09,35.09,0,0,0-11.27-9.85,69.79,69.79,0,0,0-15.54-6.26q-8.64-2.38-17.16-4.58A204.6,204.6,0,0,1,166.82,1779.4Z"></path><path class="cls-2 svg-elem-10" d="M341.87,1805.55a90.2,90.2,0,0,1,7.61-36.89,96.23,96.23,0,0,1,20.82-30.13,98.4,98.4,0,0,1,30.86-20.38,98.44,98.44,0,0,1,74.94-.1,96.83,96.83,0,0,1,51.37,50.11,90.12,90.12,0,0,1,7.92,36.59v73a19.27,19.27,0,0,1-1.62,7.86,21.54,21.54,0,0,1-4.37,6.46,19.64,19.64,0,0,1-6.6,4.38,21.1,21.1,0,0,1-8.12,1.59,18.56,18.56,0,0,1-13.5-5.24A20.33,20.33,0,0,1,495,1880,98.46,98.46,0,0,1,468.79,1895a83.33,83.33,0,0,1-30.06,5.44,95.64,95.64,0,0,1-37.57-7.45,98.26,98.26,0,0,1-30.86-20.39,96.19,96.19,0,0,1-20.82-30.12A90.23,90.23,0,0,1,341.87,1805.55Zm40.41.1a52.1,52.1,0,0,0,4.47,21.41,56.31,56.31,0,0,0,12.11,17.54,57.5,57.5,0,0,0,17.9,11.85,57.29,57.29,0,0,0,43.94,0,57.5,57.5,0,0,0,17.9-11.85,55,55,0,0,0,12-17.54,54.9,54.9,0,0,0,0-42.93,55.24,55.24,0,0,0-12-17.43A56,56,0,0,0,460.7,1755a58.4,58.4,0,0,0-43.94,0,56,56,0,0,0-30,29.18A51.94,51.94,0,0,0,382.28,1805.65Z"></path><path class="cls-2 svg-elem-11" d="M648.9,1730.78a102.74,102.74,0,0,1,28-14.82,98.73,98.73,0,0,1,32.49-5.27h.81q9.94,0,15.43,5.57a19.28,19.28,0,0,1,5.49,14.12,18.27,18.27,0,0,1-6.1,14.12,21.18,21.18,0,0,1-14.82,5.57h-.81a59.8,59.8,0,0,0-23.46,4.67,60.3,60.3,0,0,0-32.29,31.92,58,58,0,0,0-4.77,23.46v68.21a18.84,18.84,0,0,1-5.79,14A19.64,19.64,0,0,1,628.8,1898a21.07,21.07,0,0,1-7.82-1.49,19.47,19.47,0,0,1-6.5-4.18,20.54,20.54,0,0,1-4.36-6.26,18.48,18.48,0,0,1-1.63-7.76V1730.38a18.45,18.45,0,0,1,1.63-7.76,20.54,20.54,0,0,1,4.36-6.26,20.88,20.88,0,0,1,6.5-4.28,20.35,20.35,0,0,1,8-1.59,19.66,19.66,0,0,1,7.92,1.59,20,20,0,0,1,6.3,4.28,20.32,20.32,0,0,1,4.16,6.26,19.71,19.71,0,0,1,1.52,7.76Z"></path><path class="cls-2 svg-elem-12" d="M885.07,1900.4a96.36,96.36,0,0,1-56.45-17.89v63.23a18.38,18.38,0,0,1-5.89,13.92,20.23,20.23,0,0,1-14.42,5.57,19.86,19.86,0,0,1-14.32-5.57,18.5,18.5,0,0,1-5.78-13.92V1730.18a18.5,18.5,0,0,1,5.78-13.92,19.86,19.86,0,0,1,14.32-5.57,20.31,20.31,0,0,1,7.41,1.39,21.48,21.48,0,0,1,6.3,3.78,19.49,19.49,0,0,1,4.46,5.67,19.72,19.72,0,0,1,2.14,7.06,102.37,102.37,0,0,1,26.29-13.13,98.35,98.35,0,0,1,67.83,2.69,96.64,96.64,0,0,1,51.37,50.51,93.11,93.11,0,0,1,0,73.78A96.73,96.73,0,0,1,922.74,1893,95.42,95.42,0,0,1,885.07,1900.4Zm-56.25-94.85a52,52,0,0,0,4.47,21.37,55.94,55.94,0,0,0,12.08,17.5,57.45,57.45,0,0,0,17.87,11.84,57.21,57.21,0,0,0,43.86,0A57.34,57.34,0,0,0,925,1844.42a54.68,54.68,0,0,0,12-17.5,54.71,54.71,0,0,0,0-42.85,55,55,0,0,0-12-17.4,56,56,0,0,0-17.87-11.73,56.64,56.64,0,0,0-73.81,29.13A51.78,51.78,0,0,0,828.82,1805.55Z"></path><path d="M1092.81,1779.4a104.44,104.44,0,0,1-27.52-14.82,67.1,67.1,0,0,1-18.38-21.18q-6.71-12.23-6.7-28.33a63.1,63.1,0,0,1,7.11-29.83,74.71,74.71,0,0,1,19-23.27,87.14,87.14,0,0,1,27.22-15,97.5,97.5,0,0,1,32-5.27,116.46,116.46,0,0,1,23.56,2.38,100.45,100.45,0,0,1,21.72,7.06,82.47,82.47,0,0,1,18.48,11.64,63.3,63.3,0,0,1,13.81,16.1,12.7,12.7,0,0,1,2.13,5.67,15.91,15.91,0,0,1-.4,5.67,19.83,19.83,0,0,1-2.13,5.17,20.73,20.73,0,0,1-3.25,4.18,16.71,16.71,0,0,1-5,3.28,20,20,0,0,1-6.29,1.59,23.18,23.18,0,0,1-7-.5,18,18,0,0,1-6.9-3.18q-5.7-5-10.77-8.65a55,55,0,0,0-10.66-6.07,57.14,57.14,0,0,0-12-3.58,81.41,81.41,0,0,0-14.72-1.19,64.29,64.29,0,0,0-17.36,2.29,46,46,0,0,0-14.42,6.66,34.26,34.26,0,0,0-9.85,10.54,26.74,26.74,0,0,0-3.66,13.92q0,8.94,4.78,14.71a37.26,37.26,0,0,0,12.79,9.65,93.83,93.83,0,0,0,18.68,6.46q10.67,2.6,22.64,5.17a258.87,258.87,0,0,1,27.93,9.15,95.91,95.91,0,0,1,24.36,13.72,65.32,65.32,0,0,1,17.16,20.19q6.49,11.82,6.5,28.53a70,70,0,0,1-7,31.22,76,76,0,0,1-19.3,24.76,92.53,92.53,0,0,1-28.83,16.41,103.94,103.94,0,0,1-35.44,6,107.83,107.83,0,0,1-29.14-3.88,109.85,109.85,0,0,1-25.48-10.53,93,93,0,0,1-20.31-15.62,68.16,68.16,0,0,1-13.4-19.09,22.12,22.12,0,0,1-2.64-9,20.36,20.36,0,0,1,1-7.76,16.25,16.25,0,0,1,3.76-6.07,24.76,24.76,0,0,1,5.79-4.37q7.5-4,14.11-1.59t13.5,10.94a58.11,58.11,0,0,0,22.34,20.28q13.81,7.16,32.09,7.16a66.75,66.75,0,0,0,17.66-2.39,52.09,52.09,0,0,0,15.64-7.06,38.1,38.1,0,0,0,11.17-11.53,29,29,0,0,0,4.26-15.61q0-9.15-4.36-15.11a35,35,0,0,0-11.27-9.85,69.59,69.59,0,0,0-15.54-6.26q-8.62-2.38-17.16-4.58A204.22,204.22,0,0,1,1092.81,1779.4Z" class="svg-elem-13"></path><path d="M1275.46,1768.66a96.4,96.4,0,0,1,20.82-30.13,98.34,98.34,0,0,1,30.87-20.38,98.56,98.56,0,0,1,75.23,0,96.61,96.61,0,0,1,51.38,50.51,93.11,93.11,0,0,1,0,73.78,96.7,96.7,0,0,1-51.38,50.51,98.68,98.68,0,0,1-75.23,0,98.19,98.19,0,0,1-30.87-20.39,96.35,96.35,0,0,1-20.82-30.12,93.22,93.22,0,0,1,0-73.78Zm37.47,58.26a56.27,56.27,0,0,0,12.08,17.5,57.57,57.57,0,0,0,17.87,11.84,57.23,57.23,0,0,0,43.87,0,57.57,57.57,0,0,0,17.87-11.84,54.84,54.84,0,0,0,12-17.5,54.82,54.82,0,0,0,0-42.85,55.19,55.19,0,0,0-12-17.4,56.81,56.81,0,0,0-91.69,17.4,53.58,53.58,0,0,0,0,42.85Z" class="svg-elem-14"></path><path d="M1544.22,1675.29a57.62,57.62,0,0,1,13.81-19.78,61.49,61.49,0,0,1,20.51-12.43,72.22,72.22,0,0,1,25.38-4.38,21.61,21.61,0,0,1,14.63,5.08q5.88,5.06,5.88,13.62a18.07,18.07,0,0,1-1.62,7.55,20.67,20.67,0,0,1-4.37,6.27,19.25,19.25,0,0,1-6.49,4.17,21.46,21.46,0,0,1-8,1.49,23.76,23.76,0,0,0-22.33,14.72,20.84,20.84,0,0,0-1.83,7.76v11.73h18.68a20.48,20.48,0,0,1,14.62,5.57,18.34,18.34,0,0,1,5.89,13.92,19.23,19.23,0,0,1-5.89,14.32,20.09,20.09,0,0,1-14.62,5.76h-18.68v127.07a19.11,19.11,0,0,1-1.63,7.86,20.17,20.17,0,0,1-4.36,6.36,21.06,21.06,0,0,1-6.4,4.28,19.12,19.12,0,0,1-7.72,1.59,19.66,19.66,0,0,1-7.92-1.59,21.14,21.14,0,0,1-6.39-4.28,20.19,20.19,0,0,1-4.37-6.36,19.27,19.27,0,0,1-1.62-7.86V1750.66H1526a19.59,19.59,0,0,1-7.92-1.59,20.35,20.35,0,0,1-10.67-10.74,19.66,19.66,0,0,1-1.52-7.75,18.51,18.51,0,0,1,5.79-13.92,19.86,19.86,0,0,1,14.32-5.57h13.4v-11.73A68.79,68.79,0,0,1,1544.22,1675.29Z" class="svg-elem-15"></path><path d="M1736.12,1711.09h17.46a20.12,20.12,0,0,1,14.52,5.57,18.51,18.51,0,0,1,5.79,13.92,19.41,19.41,0,0,1-5.79,14.32,19.75,19.75,0,0,1-14.52,5.76h-17.46v127.87a18.51,18.51,0,0,1-5.79,13.92A19.86,19.86,0,0,1,1716,1898a20.19,20.19,0,0,1-14.41-5.57,18.34,18.34,0,0,1-5.89-13.92V1750.66h-14.62a19.59,19.59,0,0,1-7.92-1.59,20.28,20.28,0,0,1-6.4-4.37,22,22,0,0,1-4.37-6.37,18.55,18.55,0,0,1-1.62-7.75,18.34,18.34,0,0,1,5.89-13.92,20.2,20.2,0,0,1,14.42-5.57h14.62V1663a18.37,18.37,0,0,1,5.89-13.92,20.18,20.18,0,0,1,14.41-5.56,19.86,19.86,0,0,1,14.32,5.56,18.54,18.54,0,0,1,5.79,13.92Z" class="svg-elem-16"></path><path d="M48.91,1990.88v84.31a7.92,7.92,0,0,1-2.54,6,8.69,8.69,0,0,1-6.21,2.4,8,8,0,0,1-6-2.4,8.3,8.3,0,0,1-2.31-6v-84.31H8.57a8.3,8.3,0,0,1-6.12-2.44,8.67,8.67,0,0,1,0-12.08,8.3,8.3,0,0,1,6.12-2.44H72.26a8.41,8.41,0,0,1,6.17,2.48,8.29,8.29,0,0,1,2.5,6.09,8.4,8.4,0,0,1-.66,3.34,7.74,7.74,0,0,1-1.84,2.65,8.64,8.64,0,0,1-2.75,1.76,8.94,8.94,0,0,1-3.42.64Z" class="svg-elem-17"></path><path d="M106.65,2011.53a44.19,44.19,0,0,1,12.07-6.38,42.37,42.37,0,0,1,14-2.27h.35a8.92,8.92,0,0,1,6.65,2.4,8.32,8.32,0,0,1,2.36,6.08,7.87,7.87,0,0,1-2.62,6.08,9.13,9.13,0,0,1-6.39,2.4h-.35a25.77,25.77,0,0,0-10.11,2,26,26,0,0,0-13.91,13.75,25.07,25.07,0,0,0-2,10.11v29.39a8.1,8.1,0,0,1-2.5,6,8.44,8.44,0,0,1-6.16,2.44,9,9,0,0,1-3.37-.64,8.42,8.42,0,0,1-2.8-1.8,8.68,8.68,0,0,1-1.88-2.7,7.94,7.94,0,0,1-.7-3.34v-63.74a7.94,7.94,0,0,1,.7-3.34,8.68,8.68,0,0,1,1.88-2.7,8.85,8.85,0,0,1,2.8-1.84,8.71,8.71,0,0,1,3.45-.69,8.57,8.57,0,0,1,6.13,2.53A8.6,8.6,0,0,1,106,2008a8.4,8.4,0,0,1,.66,3.34Z" class="svg-elem-18"></path><path d="M158.18,2043.74a38.77,38.77,0,0,1,3.28-15.89,41.38,41.38,0,0,1,9-13,42.33,42.33,0,0,1,13.29-8.78,42.45,42.45,0,0,1,32.29,0,41.72,41.72,0,0,1,22.13,21.59,38.65,38.65,0,0,1,3.41,15.76v31.44a8.27,8.27,0,0,1-.7,3.39A9.16,9.16,0,0,1,239,2081a8.41,8.41,0,0,1-2.84,1.89,9.24,9.24,0,0,1-3.5.68,8,8,0,0,1-5.82-2.26,8.8,8.8,0,0,1-2.67-5.49,42.7,42.7,0,0,1-11.28,6.44,36,36,0,0,1-13,2.34,41.25,41.25,0,0,1-16.19-3.21,42.33,42.33,0,0,1-13.29-8.78,41.5,41.5,0,0,1-9-13A38.78,38.78,0,0,1,158.18,2043.74Zm17.41,0a22.35,22.35,0,0,0,1.93,9.22,24.25,24.25,0,0,0,5.21,7.56,24.91,24.91,0,0,0,7.71,5.1,23.74,23.74,0,0,0,9.43,1.89,24,24,0,0,0,9.51-1.89,24.91,24.91,0,0,0,7.71-5.1,23.81,23.81,0,0,0,5.17-7.56,23.67,23.67,0,0,0,0-18.49,23.82,23.82,0,0,0-5.17-7.51,24.15,24.15,0,0,0-7.71-5.07,24.53,24.53,0,0,0-9.51-1.84,24.23,24.23,0,0,0-22.35,14.42A22.28,22.28,0,0,0,175.59,2043.79Z" class="svg-elem-19"></path><path d="M346.89,2042.46v32.9a7.93,7.93,0,0,1-2.51,6,9.22,9.22,0,0,1-12.4,0,8,8,0,0,1-2.5-6v-32.86a34,34,0,0,0-1.36-9.28,20.86,20.86,0,0,0-3.67-7.1,16.64,16.64,0,0,0-5.87-4.58,18.21,18.21,0,0,0-7.83-1.62,19.68,19.68,0,0,0-8.13,1.67,19,19,0,0,0-6.48,4.66,21.87,21.87,0,0,0-4.24,7.06,24.68,24.68,0,0,0-1.53,8.77v33a8.09,8.09,0,0,1-2.49,6,8.48,8.48,0,0,1-6.17,2.44,9,9,0,0,1-3.37-.64,8.42,8.42,0,0,1-2.8-1.8,8.68,8.68,0,0,1-1.88-2.7,7.94,7.94,0,0,1-.7-3.34v-63.74a7.94,7.94,0,0,1,.7-3.34,8.48,8.48,0,0,1,1.92-2.7,9.58,9.58,0,0,1,2.8-1.84,8.8,8.8,0,0,1,6.83,0,8.47,8.47,0,0,1,4.5,4.56,8.53,8.53,0,0,1,.66,3.36l0,1.21a38.55,38.55,0,0,1,10.42-7.11,28.16,28.16,0,0,1,11.92-2.62,31.76,31.76,0,0,1,24.7,11.26,38.76,38.76,0,0,1,7,12.51A48.35,48.35,0,0,1,346.89,2042.46Z" class="svg-elem-20"></path><path d="M391.46,2046.53a46,46,0,0,1-8.84-4.89,22.68,22.68,0,0,1-6.21-6.55,16.62,16.62,0,0,1-2.32-8.91,19.87,19.87,0,0,1,2.41-9.77,23.52,23.52,0,0,1,6.38-7.41,30.35,30.35,0,0,1,9.19-4.71,35.25,35.25,0,0,1,10.81-1.67,40,40,0,0,1,7.52.73,38.52,38.52,0,0,1,7.35,2.16,26.88,26.88,0,0,1,6.3,3.57,14.92,14.92,0,0,1,4.28,5.09,7.77,7.77,0,0,1,.88,4.68,6.78,6.78,0,0,1-1.84,3.73,8.08,8.08,0,0,1-3.93,2.36,6.65,6.65,0,0,1-4.64-.39c-1.23-.85-2.39-1.7-3.5-2.52a29.28,29.28,0,0,0-3.37-2.19,19.71,19.71,0,0,0-3.59-1.54,13.87,13.87,0,0,0-4.24-.6,18.36,18.36,0,0,0-8.92,2,6.47,6.47,0,0,0-3.59,6.08,5.9,5.9,0,0,0,1.14,3.6,10.58,10.58,0,0,0,3.1,2.74,26.59,26.59,0,0,0,4.68,2.19c1.81.65,3.79,1.3,5.95,1.92q5.25,1.63,10,3.52a35.75,35.75,0,0,1,8.35,4.62,21,21,0,0,1,5.78,6.6,19,19,0,0,1,2.14,9.34,20.94,20.94,0,0,1-2.23,9.55,24,24,0,0,1-6.17,7.67,30.06,30.06,0,0,1-9.32,5.14,35,35,0,0,1-11.68,1.88,47.34,47.34,0,0,1-8.53-.81,39.26,39.26,0,0,1-8.48-2.59,31.21,31.21,0,0,1-7.44-4.52,22,22,0,0,1-5.47-6.64,9.18,9.18,0,0,1-1.35-4.67,7.28,7.28,0,0,1,1-3.81,7.57,7.57,0,0,1,2.71-2.62,8.67,8.67,0,0,1,3.8-1.11,9.39,9.39,0,0,1,4.29.82,10.74,10.74,0,0,1,4,3.17,17.82,17.82,0,0,0,6.34,5.86,19.31,19.31,0,0,0,9,1.85,18.1,18.1,0,0,0,4.63-.6,15.86,15.86,0,0,0,4.07-1.67,8.76,8.76,0,0,0,2.84-2.66,6.45,6.45,0,0,0,1.05-3.64,6.38,6.38,0,0,0-1.4-4.2,11.8,11.8,0,0,0-3.5-2.87,25,25,0,0,0-4.59-1.93l-4.68-1.45Q396.4,2048.63,391.46,2046.53Z" class="svg-elem-21"></path><path d="M469,1987.63a24.93,24.93,0,0,1,5.95-8.53,26.47,26.47,0,0,1,8.84-5.35,31.09,31.09,0,0,1,10.94-1.89,9.29,9.29,0,0,1,6.29,2.19,7.31,7.31,0,0,1,2.54,5.87,7.72,7.72,0,0,1-.7,3.25,8.85,8.85,0,0,1-1.88,2.7,8.42,8.42,0,0,1-2.8,1.8,9.24,9.24,0,0,1-3.45.64,10.31,10.31,0,0,0-7.44,3,10.57,10.57,0,0,0-2.19,3.3,9,9,0,0,0-.79,3.34v5.06h8.05a8.81,8.81,0,0,1,6.3,2.4,7.92,7.92,0,0,1,2.54,6,8.28,8.28,0,0,1-2.54,6.17,8.63,8.63,0,0,1-6.3,2.49h-8.05v54.74a8.27,8.27,0,0,1-.7,3.39,8.63,8.63,0,0,1-1.88,2.74,9,9,0,0,1-2.75,1.84,8.21,8.21,0,0,1-3.33.69,8.41,8.41,0,0,1-3.41-.69,9,9,0,0,1-2.75-1.84,8.82,8.82,0,0,1-1.89-2.74,8.43,8.43,0,0,1-.7-3.39V2020.1h-5.77a8.41,8.41,0,0,1-3.41-.69,8.61,8.61,0,0,1-2.76-1.88,8.83,8.83,0,0,1-1.83-2.74,8.45,8.45,0,0,1-.66-3.35,8,8,0,0,1,2.49-6,8.55,8.55,0,0,1,6.17-2.4h5.77V1998A29.73,29.73,0,0,1,469,1987.63Z" class="svg-elem-22"></path><path d="M525,2027.85a41.55,41.55,0,0,1,9-13,42.27,42.27,0,0,1,13.3-8.78,42.51,42.51,0,0,1,32.41,0,41.62,41.62,0,0,1,22.13,21.76,40.15,40.15,0,0,1,0,31.79,41.62,41.62,0,0,1-22.13,21.76,42.51,42.51,0,0,1-32.41,0,42.27,42.27,0,0,1-13.3-8.78,41.66,41.66,0,0,1-9-13,40.15,40.15,0,0,1,0-31.79ZM541.1,2053a24,24,0,0,0,5.21,7.54,24.75,24.75,0,0,0,7.7,5.1,24.54,24.54,0,0,0,18.89,0,24.87,24.87,0,0,0,7.7-5.1,23.43,23.43,0,0,0,5.16-7.54,23.6,23.6,0,0,0,0-18.46,23.81,23.81,0,0,0-5.16-7.5,24.48,24.48,0,0,0-39.5,7.5,23.15,23.15,0,0,0,0,18.46Z" class="svg-elem-23"></path><path d="M649.06,2011.53a44.19,44.19,0,0,1,12.07-6.38,42.37,42.37,0,0,1,14-2.27h.35a8.92,8.92,0,0,1,6.65,2.4,8.32,8.32,0,0,1,2.36,6.08,7.87,7.87,0,0,1-2.62,6.08,9.13,9.13,0,0,1-6.39,2.4h-.35a25.77,25.77,0,0,0-10.11,2,26,26,0,0,0-13.91,13.75,25.07,25.07,0,0,0-2.05,10.11v29.39a8.1,8.1,0,0,1-2.5,6,8.44,8.44,0,0,1-6.16,2.44,9,9,0,0,1-3.37-.64,8.42,8.42,0,0,1-2.8-1.8,8.68,8.68,0,0,1-1.88-2.7,7.94,7.94,0,0,1-.7-3.34v-63.74a7.94,7.94,0,0,1,.7-3.34,8.68,8.68,0,0,1,1.88-2.7,8.85,8.85,0,0,1,2.8-1.84,8.71,8.71,0,0,1,3.45-.69,8.57,8.57,0,0,1,6.13,2.53,8.6,8.6,0,0,1,1.79,2.7,8.4,8.4,0,0,1,.66,3.34Z" class="svg-elem-24"></path><path d="M773.29,2075.19a8,8,0,0,1-2.49,6,8.46,8.46,0,0,1-6.09,2.4,9.11,9.11,0,0,1-6.21-2.44,8.65,8.65,0,0,1-1.92-2.66,7.58,7.58,0,0,1-.7-3.29v-41.9a15.13,15.13,0,0,0-1.09-5.35,13.34,13.34,0,0,0-2.76-4.24,12.16,12.16,0,0,0-4.2-2.79,14.29,14.29,0,0,0-5.34-1,16.9,16.9,0,0,0-5.73,1,17.67,17.67,0,0,0-5.07,2.83A15.7,15.7,0,0,0,728,2028a10.78,10.78,0,0,0-1.53,5.19v.51c-.06.06-.06.17,0,.34a1.32,1.32,0,0,1,0,.69v40.35a8.12,8.12,0,0,1-2.49,6,8.46,8.46,0,0,1-6.17,2.44,9,9,0,0,1-3.37-.64,8.42,8.42,0,0,1-2.8-1.8,9.11,9.11,0,0,1-1.88-2.69,8.09,8.09,0,0,1-.7-3.34v-63.67a8.09,8.09,0,0,1,.7-3.34,8.5,8.5,0,0,1,1.93-2.7,9.65,9.65,0,0,1,2.8-1.84,8.54,8.54,0,0,1,3.41-.68,8.1,8.1,0,0,1,5.6,2,8.65,8.65,0,0,1,2.8,5,29.39,29.39,0,0,1,7.92-5.15,22.68,22.68,0,0,1,9.31-1.92,29,29,0,0,1,12.65,2.7,28.5,28.5,0,0,1,9.57,7.32,39.36,39.36,0,0,1,11.64-7.32,34.89,34.89,0,0,1,13.39-2.7,29.06,29.06,0,0,1,12.07,2.44,27.58,27.58,0,0,1,9.27,6.67,30.13,30.13,0,0,1,6,9.89,34.28,34.28,0,0,1,2.1,12.06v41.25a8,8,0,0,1-2.49,6,8.47,8.47,0,0,1-6.08,2.39,9,9,0,0,1-3.37-.64,8.81,8.81,0,0,1-2.84-1.8,8.68,8.68,0,0,1-1.93-2.66,7.58,7.58,0,0,1-.7-3.29v-41.56a16.7,16.7,0,0,0-1-5.44,12.73,12.73,0,0,0-2.75-4.37,12.92,12.92,0,0,0-4.25-2.87,14,14,0,0,0-5.42-1,16,16,0,0,0-5.73,1.07,18.18,18.18,0,0,0-5.08,2.87,15.18,15.18,0,0,0-3.63,4.24,11.75,11.75,0,0,0-1.57,5.18Z" class="svg-elem-25"></path><path d="M845.55,2043.74a38.77,38.77,0,0,1,3.28-15.89,41.55,41.55,0,0,1,9-13,42.27,42.27,0,0,1,13.3-8.78,42.43,42.43,0,0,1,32.28,0,41.63,41.63,0,0,1,22.13,21.59,38.83,38.83,0,0,1,3.42,15.76v31.44a8.43,8.43,0,0,1-.7,3.39,9.53,9.53,0,0,1-1.88,2.78,8.55,8.55,0,0,1-2.85,1.89,9.21,9.21,0,0,1-3.5.68,8,8,0,0,1-5.82-2.26,8.73,8.73,0,0,1-2.66-5.49,42.92,42.92,0,0,1-11.29,6.44,36,36,0,0,1-13,2.34,41.2,41.2,0,0,1-16.18-3.21,42.27,42.27,0,0,1-13.3-8.78,41.66,41.66,0,0,1-9-13A38.78,38.78,0,0,1,845.55,2043.74Zm17.41,0a22.35,22.35,0,0,0,1.93,9.22,24.25,24.25,0,0,0,5.21,7.56,25,25,0,0,0,7.72,5.1,24.64,24.64,0,0,0,18.93,0,24.91,24.91,0,0,0,7.71-5.1,23.81,23.81,0,0,0,5.17-7.56,23.56,23.56,0,0,0,0-18.49,23.82,23.82,0,0,0-5.17-7.51,24.15,24.15,0,0,0-7.71-5.07,25.26,25.26,0,0,0-18.93,0,24.13,24.13,0,0,0-12.93,12.58A22.28,22.28,0,0,0,863,2043.79Z" class="svg-elem-26"></path><path d="M973.19,2043.57l-.08.17.08.09a22.19,22.19,0,0,0,1.71,8.52,24.54,24.54,0,0,0,4.77,7.46,24,24,0,0,0,7.21,5.31,21.45,21.45,0,0,0,9.06,2.1,26.85,26.85,0,0,0,8.57-1,22.62,22.62,0,0,0,8-4.45c.88-.69,1.82-1.36,2.85-2a10.28,10.28,0,0,1,3.23-1.37,8.48,8.48,0,0,1,3.68,0,9.5,9.5,0,0,1,4.06,2.23,7.52,7.52,0,0,1,2.1,2.83,7.79,7.79,0,0,1,.66,3.34,9.12,9.12,0,0,1-.83,3.47,10.79,10.79,0,0,1-2.36,3.3,35,35,0,0,1-12.78,8.18,44.14,44.14,0,0,1-15.66,2.78,43,43,0,0,1-29.79-11.69,40.31,40.31,0,0,1-9.05-12.85,38.33,38.33,0,0,1-3.33-15.89V2044l.09-.17-.09-.09a38.83,38.83,0,0,1,3.33-16,41.6,41.6,0,0,1,9.05-13,42.79,42.79,0,0,1,13.39-8.78,42,42,0,0,1,16.4-3.21,44.14,44.14,0,0,1,15.66,2.78,35,35,0,0,1,12.78,8.18,10.79,10.79,0,0,1,2.36,3.3,9.18,9.18,0,0,1,.83,3.51,8,8,0,0,1-.66,3.39,7.49,7.49,0,0,1-2.1,2.82,9.4,9.4,0,0,1-4.06,2.23,7.88,7.88,0,0,1-3.68,0,10.63,10.63,0,0,1-3.23-1.41c-1-.66-2-1.33-2.85-2a23.29,23.29,0,0,0-8-4.36,28.69,28.69,0,0,0-8.57-1.12,22.28,22.28,0,0,0-9,2.19,24,24,0,0,0-7.22,5.31,25.4,25.4,0,0,0-4.81,7.45A22.09,22.09,0,0,0,973.19,2043.57Z" class="svg-elem-27"></path><path d="M1055.43,1980.65a10.11,10.11,0,0,1,2.1-3.05,9.94,9.94,0,0,1,10.59-2,9.91,9.91,0,0,1,3.06,2,10.11,10.11,0,0,1,2.1,3.05,9.07,9.07,0,0,1,.79,3.72,8.83,8.83,0,0,1-.79,3.69,10.08,10.08,0,0,1-2.1,3,9.92,9.92,0,0,1-10.59,2,9.65,9.65,0,0,1-3.06-2,10.08,10.08,0,0,1-2.1-3,8.83,8.83,0,0,1-.79-3.69A9.07,9.07,0,0,1,1055.43,1980.65Zm17.67,94.45a8.12,8.12,0,0,1-2.49,6,8.46,8.46,0,0,1-6.17,2.44,9,9,0,0,1-3.37-.64,8.42,8.42,0,0,1-2.8-1.8,9,9,0,0,1-1.88-2.7,8.09,8.09,0,0,1-.7-3.34v-63.74a8.09,8.09,0,0,1,.7-3.34,8.5,8.5,0,0,1,1.93-2.7,9.45,9.45,0,0,1,2.8-1.84,8.64,8.64,0,0,1,9.53,1.84,8.45,8.45,0,0,1,2.45,6Z" class="svg-elem-28"></path><path d="M1102.8,2027.85a41.55,41.55,0,0,1,9-13,42.27,42.27,0,0,1,13.3-8.78,42.51,42.51,0,0,1,32.41,0,41.68,41.68,0,0,1,22.14,21.76,40.15,40.15,0,0,1,0,31.79,41.68,41.68,0,0,1-22.14,21.76,42.51,42.51,0,0,1-32.41,0,42.27,42.27,0,0,1-13.3-8.78,41.66,41.66,0,0,1-9-13,40.15,40.15,0,0,1,0-31.79Zm16.14,25.1a24.21,24.21,0,0,0,5.21,7.54,24.87,24.87,0,0,0,7.7,5.1,23.63,23.63,0,0,0,9.4,1.89,23.94,23.94,0,0,0,9.5-1.89,24.82,24.82,0,0,0,7.69-5.1,23.61,23.61,0,0,0,5.17-7.54,23.6,23.6,0,0,0,0-18.46,23.85,23.85,0,0,0-12.86-12.55,24.44,24.44,0,0,0-9.5-1.84,24.41,24.41,0,0,0-17.1,6.89,24.63,24.63,0,0,0-5.21,7.5,23.15,23.15,0,0,0,0,18.46Zm47.68-75.26a8.58,8.58,0,0,0,2-2.83,8,8,0,0,0,.66-3.17,8.31,8.31,0,0,0-.66-3.21,8.43,8.43,0,0,0-2-2.87,9.29,9.29,0,0,0-2.93-1.84,8.91,8.91,0,0,0-9.58,1.92l-11.63,11.49a8.34,8.34,0,0,0-2,2.91,8.58,8.58,0,0,0-.66,3.25,7.94,7.94,0,0,0,.66,3.17,8.73,8.73,0,0,0,2,2.83,8.37,8.37,0,0,0,6.08,2.61,8.51,8.51,0,0,0,6.25-2.61Z" class="svg-elem-29"></path><path d="M1283.33,2042.46v32.9a7.92,7.92,0,0,1-2.5,6,9.22,9.22,0,0,1-12.4,0,8,8,0,0,1-2.51-6v-32.86a33.58,33.58,0,0,0-1.36-9.28,20.69,20.69,0,0,0-3.67-7.1,16.61,16.61,0,0,0-5.86-4.58,18.27,18.27,0,0,0-7.83-1.62,19.73,19.73,0,0,0-8.14,1.67,18.94,18.94,0,0,0-6.47,4.66,22.07,22.07,0,0,0-4.25,7.06,24.68,24.68,0,0,0-1.53,8.77v33a8.09,8.09,0,0,1-2.49,6,8.46,8.46,0,0,1-6.17,2.44,9,9,0,0,1-3.37-.64,8.28,8.28,0,0,1-2.79-1.8,8.88,8.88,0,0,1-1.89-2.7,8.09,8.09,0,0,1-.7-3.34v-63.74a8.09,8.09,0,0,1,.7-3.34,8.5,8.5,0,0,1,1.93-2.7,9.45,9.45,0,0,1,2.8-1.84,8.77,8.77,0,0,1,6.82,0,8.52,8.52,0,0,1,2.71,1.85,8.79,8.79,0,0,1,1.8,2.71,8.53,8.53,0,0,1,.65,3.36l0,1.21a38.6,38.6,0,0,1,10.43-7.11,28.08,28.08,0,0,1,11.91-2.62,31.72,31.72,0,0,1,24.7,11.26,38.57,38.57,0,0,1,7,12.51A48.09,48.09,0,0,1,1283.33,2042.46Z" class="svg-elem-30"></path><path class="cls-2 svg-elem-31" d="M1397.82,1973.92a58.88,58.88,0,0,1,15.16,1.93,56.8,56.8,0,0,1,13.59,5.48,57.81,57.81,0,0,1,11.54,8.57A53.31,53.31,0,0,1,1447,2001a55.11,55.11,0,0,1,5.73,13.15,54.16,54.16,0,0,1,0,29.52,55.35,55.35,0,0,1-5.73,13.11,51.6,51.6,0,0,1-8.91,11,58.31,58.31,0,0,1-11.54,8.43,57.55,57.55,0,0,1-13.59,5.44,58.88,58.88,0,0,1-15.16,1.93h-19.23a8.53,8.53,0,0,1-6.16-2.4,8,8,0,0,1-2.49-6v-92.87a8,8,0,0,1,2.49-6,8.53,8.53,0,0,1,6.16-2.4Zm.55,17.22h-11v75.39h10.59a41.85,41.85,0,0,0,15.44-2.83,38.61,38.61,0,0,0,12.55-7.85,36.26,36.26,0,0,0,11.46-26.89,36,36,0,0,0-3.06-14.83,37.75,37.75,0,0,0-8.31-11.93,39.42,39.42,0,0,0-12.38-8A40.46,40.46,0,0,0,1398.37,1991.14Z"></path><path class="cls-2 svg-elem-32" d="M1482.1,1980.65a9.8,9.8,0,0,1,15.75-3.05,10.11,10.11,0,0,1,2.1,3.05,9.06,9.06,0,0,1,.78,3.72,8.82,8.82,0,0,1-.78,3.69,10.08,10.08,0,0,1-2.1,3,9.68,9.68,0,0,1-6.83,2.75,9.8,9.8,0,0,1-3.76-.73,9.54,9.54,0,0,1-3.06-2,9.73,9.73,0,0,1-2.1-3,8.67,8.67,0,0,1-.79-3.69A8.91,8.91,0,0,1,1482.1,1980.65Zm17.67,94.45a8.12,8.12,0,0,1-2.49,6,8.48,8.48,0,0,1-6.17,2.44,9,9,0,0,1-3.37-.64,8.42,8.42,0,0,1-2.8-1.8,8.85,8.85,0,0,1-1.88-2.7,7.94,7.94,0,0,1-.7-3.34v-63.74a7.94,7.94,0,0,1,.7-3.34,8.63,8.63,0,0,1,1.92-2.7,9.58,9.58,0,0,1,2.8-1.84,8.56,8.56,0,0,1,12,7.88Z"></path><path class="cls-2 svg-elem-33" d="M1609.48,2041.26c0,.46,0,.87,0,1.24s0,.79,0,1.24,0,.89,0,1.29,0,.83,0,1.28v29.3a41.9,41.9,0,0,1-3.46,16.2,40.18,40.18,0,0,1-22,21.42,42.74,42.74,0,0,1-16.23,3.08,44.37,44.37,0,0,1-15.66-2.78,35,35,0,0,1-12.78-8.19,10.84,10.84,0,0,1-2.36-3.3,9.18,9.18,0,0,1-.83-3.51,7.72,7.72,0,0,1,2.75-6.12,10,10,0,0,1,4.07-2.27,7.66,7.66,0,0,1,3.68,0,11.07,11.07,0,0,1,3.24,1.42c1,.65,2,1.32,2.84,2a23.88,23.88,0,0,0,8,4.41,25.78,25.78,0,0,0,8.57,1.07,21.5,21.5,0,0,0,8.53-1.88,24.29,24.29,0,0,0,7-4.74,23.6,23.6,0,0,0,4.86-6.89,25.53,25.53,0,0,0,2.27-8.3,41.49,41.49,0,0,1-11.24,5.5,42.37,42.37,0,0,1-12.82,1.92,41.17,41.17,0,0,1-16.18-3.21,42.27,42.27,0,0,1-13.3-8.78,41.66,41.66,0,0,1-9-13,40.15,40.15,0,0,1,0-31.79,41.55,41.55,0,0,1,9-13,42.27,42.27,0,0,1,13.3-8.78,42.42,42.42,0,0,1,29.09-1.2,43.32,43.32,0,0,1,11.24,5.61,8.16,8.16,0,0,1,2.84-5.44,8.69,8.69,0,0,1,5.91-2.18,8.53,8.53,0,0,1,6.16,2.4,7.94,7.94,0,0,1,2.5,6Zm-65.88,2.53a22.5,22.5,0,0,0,1.92,9.22,24.42,24.42,0,0,0,5.21,7.56,24.87,24.87,0,0,0,7.7,5.1,24.52,24.52,0,0,0,18.46.17,24.12,24.12,0,0,0,7.44-4.67,24.77,24.77,0,0,0,5.2-6.91,23.5,23.5,0,0,0,2.45-8.5v-4a23.57,23.57,0,0,0-2.45-8.58,23.58,23.58,0,0,0-12.64-11.46,24.59,24.59,0,0,0-9.06-1.67,24.32,24.32,0,0,0-17.1,6.91,24.43,24.43,0,0,0-5.21,7.51A22.43,22.43,0,0,0,1543.6,2043.79Z"></path><path class="cls-2 svg-elem-34" d="M1640.8,1980.65a9.73,9.73,0,0,1,17.84,0,8.91,8.91,0,0,1,.79,3.72,8.67,8.67,0,0,1-.79,3.69,9.73,9.73,0,0,1-2.1,3,9.54,9.54,0,0,1-3.06,2,10,10,0,0,1-7.52,0,9.54,9.54,0,0,1-3.06-2,9.73,9.73,0,0,1-2.1-3,8.67,8.67,0,0,1-.79-3.69A8.91,8.91,0,0,1,1640.8,1980.65Zm17.67,94.45a8.12,8.12,0,0,1-2.49,6,8.48,8.48,0,0,1-6.17,2.44,9,9,0,0,1-3.37-.64,8.42,8.42,0,0,1-2.8-1.8,8.85,8.85,0,0,1-1.88-2.7,7.94,7.94,0,0,1-.7-3.34v-63.74a7.94,7.94,0,0,1,.7-3.34,8.63,8.63,0,0,1,1.92-2.7,9.58,9.58,0,0,1,2.8-1.84,8.56,8.56,0,0,1,12,7.88Z"></path><path class="cls-2 svg-elem-35" d="M1714.9,2003.05h7.52a8.68,8.68,0,0,1,6.26,2.4,8,8,0,0,1,2.49,6,8.35,8.35,0,0,1-2.49,6.17,8.51,8.51,0,0,1-6.26,2.49h-7.52v55.09a8,8,0,0,1-2.5,6,8.53,8.53,0,0,1-6.16,2.4,8.72,8.72,0,0,1-6.22-2.4,7.91,7.91,0,0,1-2.53-6V2020.1h-6.3a8.38,8.38,0,0,1-3.41-.69,8.61,8.61,0,0,1-2.76-1.88,9.55,9.55,0,0,1-1.88-2.74,8,8,0,0,1-.7-3.35,7.88,7.88,0,0,1,2.54-6,8.69,8.69,0,0,1,6.21-2.4h6.3v-20.73a7.92,7.92,0,0,1,2.53-6,8.72,8.72,0,0,1,6.22-2.4,8.53,8.53,0,0,1,6.16,2.4,8,8,0,0,1,2.5,6Z"></path><path class="cls-2 svg-elem-36" d="M1749.8,2043.74a38.93,38.93,0,0,1,3.28-15.89,41.55,41.55,0,0,1,9-13,42.38,42.38,0,0,1,13.3-8.78,42.43,42.43,0,0,1,32.28,0,41.78,41.78,0,0,1,13.17,8.69,42.33,42.33,0,0,1,9,12.9,39,39,0,0,1,3.41,15.76v31.44a8.27,8.27,0,0,1-.7,3.39,9.34,9.34,0,0,1-1.88,2.78,8.55,8.55,0,0,1-2.85,1.89,9.16,9.16,0,0,1-3.49.68,8,8,0,0,1-5.82-2.26,8.69,8.69,0,0,1-2.67-5.49,42.6,42.6,0,0,1-11.29,6.44,36,36,0,0,1-12.94,2.34,41.22,41.22,0,0,1-16.19-3.21,42.38,42.38,0,0,1-13.3-8.78,41.66,41.66,0,0,1-9-13A39,39,0,0,1,1749.8,2043.74Zm17.41,0a22.51,22.51,0,0,0,1.93,9.22,24.45,24.45,0,0,0,5.22,7.56,24.91,24.91,0,0,0,7.71,5.1,24.64,24.64,0,0,0,18.93,0,24.91,24.91,0,0,0,7.71-5.1,23.65,23.65,0,0,0,5.17-7.56,23.56,23.56,0,0,0,0-18.49,23.65,23.65,0,0,0-5.17-7.51,24.15,24.15,0,0,0-7.71-5.07,25.26,25.26,0,0,0-18.93,0,24.15,24.15,0,0,0-7.71,5.07,24.46,24.46,0,0,0-5.22,7.51A22.44,22.44,0,0,0,1767.21,2043.79Z"></path><path class="cls-2 svg-elem-37" d="M1882,2075.19a8,8,0,0,1-2.5,6,8.55,8.55,0,0,1-6.17,2.4,8.69,8.69,0,0,1-6.21-2.4,7.92,7.92,0,0,1-2.54-6v-92.87a7.92,7.92,0,0,1,2.54-6,8.69,8.69,0,0,1,6.21-2.4,8.55,8.55,0,0,1,6.17,2.4,8,8,0,0,1,2.5,6Z"></path></g></g></svg>