<svg id="Capa_1" enable-background="new 0 0 512 512" height="512" viewBox="0 0 512 512" width="512" xmlns="http://www.w3.org/2000/svg"><g><g><g><path d="m80.686 300.476c-2.14 2.01-4.966 3.13-7.902 3.13h-67.014c-3.187 0-5.77 2.583-5.77 5.77v31.006h72.784c3.203 0 6.253-1.208 8.586-3.401l20.035-18.822v-37.148z" fill="#ffbd86"/></g></g><g><g><path d="m345.13 392.412c-1.358 0-2.462-1.104-2.462-2.462v-41.777c0-1.358 1.104-2.462 2.462-2.462h34.563v-121.561c-34.99-7.454-61.319-38.589-61.319-75.769 0-1.355.036-2.701.105-4.039h-41.579l-1 1.321v54.545c0 2.63-2.14 4.771-4.77 4.771h-62.16c-2.63 0-4.771-2.14-4.771-4.771v-54.612l-1-1.254h-97.023c-3.187 0-5.77 2.583-5.77 5.77v168.986l40.395-37.949c2.744-2.743 6.362-4.242 10.21-4.242s7.467 1.499 10.188 4.22c5.618 5.618 5.618 14.759 0 20.376l-18.328 18.327h112.467c7.952 0 14.465 6.022 14.827 13.71.188 3.986-1.221 7.766-3.965 10.643-2.746 2.878-6.449 4.464-10.426 4.464v2h31.408c7.952 0 14.465 6.022 14.827 13.71.188 3.986-1.221 7.765-3.965 10.642-2.746 2.878-6.449 4.464-10.426 4.464h-20.544v2c3.977 0 7.68 1.585 10.426 4.464 2.745 2.877 4.153 6.656 3.965 10.642-.362 7.688-6.875 13.71-14.827 13.71h-21.136v2c3.977 0 7.68 1.585 10.426 4.464 1.862 1.951 3.091 4.323 3.642 6.887h114.353c3.187 0 5.77-2.583 5.77-5.77v-25.448z" fill="#01c0fa"/><path d="m140.115 280.42c1.058-1.058 2.237-1.92 3.486-2.606v-127.702c0-3.187 2.583-5.77 5.77-5.77h-43.196c-3.187 0-5.77 2.583-5.77 5.77v167.614z" fill="#08a9f1"/><g><path d="m203.199 144.342v55.866c0 3.187 2.584 5.77 5.77 5.77h62.16c3.187 0 5.77-2.583 5.77-5.77v-55.866z" fill="#fd4755"/></g><g><path d="m235.396 200.208v-55.866h-32.198v55.866c0 3.187 2.584 5.77 5.77 5.77h32.198c-3.186.001-5.77-2.583-5.77-5.77z" fill="#fb2b3a"/></g></g><path d="m204.018 277.279c3.136 2.706 7.872 2.356 10.578-.78l17.954-20.81v58.937c0 2.023.805 3.855 2.107 5.204h10.787c1.302-1.349 2.107-3.181 2.107-5.204v-58.937l17.953 20.81c1.483 1.72 3.577 2.601 5.682 2.601 1.735 0 3.479-.599 4.896-1.821 3.137-2.706 3.485-7.441.78-10.578l-31.132-36.086c-1.425-1.652-3.498-2.601-5.679-2.601s-4.254.95-5.679 2.601l-31.132 36.086c-2.707 3.137-2.359 7.873.778 10.578z" fill="#99e6fc"/></g><g><g><path d="m287.182 349.647h-31.408c8.757 0 15.807-7.305 15.39-16.153-.39-8.287-7.529-14.663-15.826-14.663h-110.053l16.62-16.62c6.017-6.017 6.017-15.773 0-21.79-6.017-6.017-15.773-6.017-21.79 0l-59.429 55.832c-2.14 2.01-4.966 3.13-7.902 3.13h-72.784v76.392c0 3.187 2.584 5.77 5.77 5.77h66.678c2.942 0 5.802 1.093 7.912 3.142 11.096 10.772 26.228 17.409 42.915 17.409h121.79c8.297 0 15.435-6.376 15.826-14.663.417-8.848-6.634-16.153-15.39-16.153h21.136c8.297 0 15.435-6.376 15.826-14.663.417-8.848-6.634-16.153-15.391-16.153h20.544c8.757 0 15.807-7.305 15.39-16.153-.389-8.288-7.528-14.664-15.824-14.664z" fill="#fed2a4"/></g><g><g><path d="m287.182 349.647h-112.694c-2.761 0-5 2.239-5 5v25.816h118.128c8.757 0 15.807-7.305 15.39-16.153-.389-8.287-7.528-14.663-15.824-14.663z" fill="#f6a96c"/></g><g><path d="m266.638 380.463h-97.149v25.816c0 2.761 2.239 5 5 5h92.584c8.757 0 15.807-7.305 15.39-16.153-.39-8.287-7.529-14.663-15.825-14.663z" fill="#ffbd86"/></g></g></g><g><path d="m510.477 366.192-71.094-48.05c-2.299-1.554-5.401.093-5.401 2.868v20.237c0 1.912-1.55 3.462-3.462 3.462h-85.39c-1.912 0-3.462 1.55-3.462 3.462v41.778c0 1.912 1.55 3.462 3.462 3.462h85.389c1.912 0 3.462 1.55 3.462 3.462v20.237c0 2.775 3.102 4.423 5.401 2.869l71.094-48.05c2.032-1.373 2.032-4.364.001-5.737z" fill="#80d261"/></g><g><g><path d="m374.118 389.949v-41.778c0-1.912 1.55-3.462 3.462-3.462h-32.45c-1.912 0-3.462 1.55-3.462 3.462v41.778c0 1.912 1.55 3.462 3.462 3.462h32.451c-1.913.001-3.463-1.549-3.463-3.462z" fill="#68ca44"/></g></g><g><g><circle cx="395.85" cy="148.381" fill="#faea5e" r="70.976"/></g><g><path d="m356.958 148.381c0-33.679 23.466-61.859 54.934-69.133-5.157-1.192-10.522-1.843-16.042-1.843-39.199 0-70.976 31.777-70.976 70.976s31.777 70.976 70.976 70.976c5.52 0 10.884-.651 16.042-1.843-31.468-7.274-54.934-35.454-54.934-69.133z" fill="#ffd600"/></g><g><path d="m395.85 226.857c-43.272 0-78.476-35.204-78.476-78.476s35.204-78.476 78.476-78.476 78.476 35.204 78.476 78.476-35.204 78.476-78.476 78.476zm0-141.952c-35.001 0-63.476 28.475-63.476 63.476s28.475 63.476 63.476 63.476 63.476-28.475 63.476-63.476-28.475-63.476-63.476-63.476z" fill="#fe9901"/></g><path d="m403.86 140.881h-16.02c-3.857 0-6.995-3.138-6.995-6.994 0-3.857 3.138-6.995 6.995-6.995h28.226c4.142 0 7.5-3.358 7.5-7.5s-3.358-7.5-7.5-7.5h-12.716v-7.376c0-4.142-3.358-7.5-7.5-7.5s-7.5 3.358-7.5 7.5v7.376h-.51c-12.128 0-21.995 9.867-21.995 21.995 0 12.127 9.867 21.994 21.995 21.994h16.02c3.857 0 6.995 3.138 6.995 6.995s-3.138 6.995-6.995 6.995h-28.226c-4.142 0-7.5 3.358-7.5 7.5s3.358 7.5 7.5 7.5h12.716v7.376c0 4.142 3.358 7.5 7.5 7.5s7.5-3.358 7.5-7.5v-7.376h.51c12.128 0 21.995-9.867 21.995-21.995s-9.867-21.995-21.995-21.995z" fill="#fe9901"/></g></g></svg>