<svg id="Capa_1" enable-background="new 0 0 512 512" height="512" viewBox="0 0 512 512" width="512" xmlns="http://www.w3.org/2000/svg"><g><g><g><g><path d="m286.69 15.899h-66.564l-1 1.123v37.413c0 1.229-1 2.229-2.229 2.229h-43.482c-1.229 0-2.229-1-2.229-2.229v-37.486l-1-1.05h-66.566c-1.707 0-3.091 1.384-3.091 3.091v187.16h156.471v-154.429c0-1.153.938-2.091 2.09-2.091h30.691v-30.64c0-1.707-1.384-3.091-3.091-3.091z" fill="#ea9b58"/><path d="m409.43 48.63h-54.518l-1 1.324v30.548c0 .921-.75 1.671-1.671 1.671h-35.962c-.921 0-1.671-.75-1.671-1.671v-30.639l-1-1.233h-54.518c-1.707 0-3.091 1.384-3.091 3.09v154.43h156.521v-154.43c.001-1.706-1.383-3.09-3.09-3.09z" fill="#01c0fa"/><g><path d="m302.358 48.63h-43.268c-1.707 0-3.091 1.384-3.091 3.091v153.43h43.268v-153.43c.001-1.707 1.384-3.091 3.091-3.091z" fill="#08a9f1"/></g><g><g><path d="m313.608 48.63v31.872c0 1.475 1.196 2.671 2.671 2.671h35.962c1.475 0 2.671-1.196 2.671-2.671v-31.872z" fill="#fd4755"/></g></g><path d="m334 80.502v-31.872h-20.392v31.872c0 1.475 1.196 2.671 2.671 2.671h20.392c-1.475 0-2.671-1.196-2.671-2.671z" fill="#fb2b3a"/><g><path d="m146.801 15.899h-43.181c-1.707 0-3.091 1.384-3.091 3.091v186.161h43.181v-186.161c0-1.707 1.384-3.091 3.091-3.091z" fill="#d88a55"/></g><g><path d="m170.185 15.899v38.537c0 1.784 1.446 3.23 3.23 3.23h43.482c1.784 0 3.23-1.446 3.23-3.23v-38.537z" fill="#fd4755"/></g><path d="m191.059 54.436v-38.537h-20.874v38.537c0 1.784 1.446 3.23 3.23 3.23h20.874c-1.784 0-3.23-1.446-3.23-3.23z" fill="#fb2b3a"/></g><path d="m221.93 105.209-21.096-24.453c-1.425-1.652-3.498-2.601-5.679-2.601s-4.254.949-5.679 2.601l-21.096 24.453c-2.706 3.136-2.357 7.872.78 10.578 3.135 2.706 7.873 2.356 10.578-.78l7.917-9.177v33.433c0 4.142 3.358 7.5 7.5 7.5s7.5-3.358 7.5-7.5v-33.433l7.917 9.177c1.483 1.72 3.577 2.601 5.682 2.601 1.735 0 3.479-.599 4.896-1.821 3.137-2.705 3.485-7.441.78-10.578z" fill="#ffbd86"/><g><path d="m218.032 173.896h-45.753c-4.142 0-7.5-3.358-7.5-7.5s3.358-7.5 7.5-7.5h45.753c4.142 0 7.5 3.358 7.5 7.5s-3.358 7.5-7.5 7.5z" fill="#ffbd86"/></g></g><g><g><g><path d="m256 205.151h-69.655l-1 1.107v37.43c0 1.229-1 2.229-2.23 2.229h-43.482c-1.229 0-2.229-1-2.229-2.229v-37.537l-1-1h-66.565c-1.707 0-3.091 1.384-3.091 3.091v187.161h190.252v-188.403z" fill="#d88a55"/><g><path d="m113.107 205.151h-43.268c-1.707 0-3.091 1.384-3.091 3.091v186.161h43.268v-186.162c0-1.707 1.384-3.09 3.091-3.09z" fill="#c57a44"/></g><g><path d="m136.404 205.151v38.537c0 1.784 1.446 3.23 3.23 3.23h43.482c1.784 0 3.23-1.446 3.23-3.23v-38.537z" fill="#fd4755"/></g><path d="m157.059 243.688v-38.537h-20.655v38.537c0 1.784 1.446 3.229 3.23 3.229h20.655c-1.784 0-3.23-1.446-3.23-3.229z" fill="#fb2b3a"/></g><path d="m188.149 294.461-21.096-24.453c-1.425-1.652-3.498-2.601-5.679-2.601s-4.254.949-5.679 2.601l-21.095 24.453c-2.706 3.136-2.357 7.872.78 10.578 3.135 2.706 7.872 2.356 10.578-.78l7.917-9.177v33.433c0 4.142 3.358 7.5 7.5 7.5s7.5-3.358 7.5-7.5v-33.433l7.917 9.177c1.483 1.72 3.577 2.601 5.682 2.601 1.735 0 3.479-.599 4.896-1.821 3.136-2.706 3.484-7.442.779-10.578z" fill="#ffbd86"/><g><path d="m184.25 363.147h-45.752c-4.142 0-7.5-3.358-7.5-7.5s3.358-7.5 7.5-7.5h45.752c4.142 0 7.5 3.358 7.5 7.5s-3.357 7.5-7.5 7.5z" fill="#ffbd86"/></g></g><g><g><path d="m442.161 205.151h-66.564l-1 1.498v37.039c0 1.229-1 2.229-2.229 2.229h-43.482c-1.229 0-2.23-1-2.23-2.229v-37.299l-1-1.238h-69.656v190.251h189.251v-187.161c0-1.707-1.383-3.09-3.09-3.09z" fill="#80d261"/><g><path d="m256 205.151h43.268v189.251h-43.268z" fill="#68ca44"/></g><g><path d="m325.655 205.151v38.537c0 1.784 1.446 3.23 3.23 3.23h43.482c1.784 0 3.23-1.446 3.23-3.23v-38.537z" fill="#fd4755"/></g><path d="m346.059 243.688v-38.537h-20.404v38.537c0 1.784 1.446 3.229 3.23 3.229h20.404c-1.784 0-3.23-1.446-3.23-3.229z" fill="#fb2b3a"/></g><path d="m377.4 294.461-21.096-24.453c-1.425-1.652-3.498-2.601-5.679-2.601s-4.254.949-5.679 2.601l-21.096 24.453c-2.706 3.136-2.357 7.872.78 10.578 3.135 2.706 7.872 2.356 10.578-.78l7.917-9.177v33.433c0 4.142 3.358 7.5 7.5 7.5s7.5-3.358 7.5-7.5v-33.433l7.917 9.177c1.483 1.72 3.577 2.601 5.682 2.601 1.735 0 3.479-.599 4.896-1.821 3.137-2.706 3.485-7.442.78-10.578z" fill="#fef0ae"/><g><path d="m373.502 363.147h-45.752c-4.142 0-7.5-3.358-7.5-7.5s3.358-7.5 7.5-7.5h45.752c4.142 0 7.5 3.358 7.5 7.5s-3.358 7.5-7.5 7.5z" fill="#fef0ae"/></g></g><g><g><path d="m353.18 180.598h-37.84c-4.142 0-7.5-3.358-7.5-7.5s3.358-7.5 7.5-7.5h37.84c4.142 0 7.5 3.358 7.5 7.5s-3.358 7.5-7.5 7.5z" fill="#0290cf"/></g><g><path d="m353.18 155.399h-37.84c-4.142 0-7.5-3.358-7.5-7.5s3.358-7.5 7.5-7.5h37.84c4.142 0 7.5 3.358 7.5 7.5s-3.358 7.5-7.5 7.5z" fill="#0290cf"/></g></g></g></g><g><g><path d="m36.375 422.457h453.662v45.589h-453.662z" fill="#faea5e" transform="matrix(-1 0 0 -1 526.413 890.503)"/></g><g><path d="m117.362 422.457h291.689v45.589h-291.689z" fill="#ffd600" transform="matrix(-1 0 0 -1 526.413 890.503)"/></g><g><path d="m199.721 422.457h126.971v45.589h-126.971z" fill="#faea5e" transform="matrix(-1 0 0 -1 526.413 890.503)"/></g><g><path d="m508.909 423.626h-505.818c-1.707 0-3.091-1.384-3.091-3.091v-23.043c0-1.707 1.384-3.091 3.091-3.091h505.819c1.707 0 3.091 1.384 3.091 3.091v23.043c-.001 1.707-1.385 3.091-3.092 3.091z" fill="#fea613"/></g><g><path d="m41.722 420.535v-23.043c0-1.707 1.384-3.091 3.091-3.091h-41.722c-1.707 0-3.091 1.384-3.091 3.091v23.043c0 1.707 1.384 3.091 3.091 3.091h41.722c-1.707 0-3.091-1.384-3.091-3.091z" fill="#fe9901"/></g><g><path d="m508.909 496.101h-505.818c-1.707 0-3.091-1.384-3.091-3.091v-23.043c0-1.707 1.384-3.091 3.091-3.091h505.819c1.707 0 3.091 1.384 3.091 3.091v23.043c-.001 1.707-1.385 3.091-3.092 3.091z" fill="#fea613"/></g><g><path d="m41.722 493.01v-23.043c0-1.707 1.384-3.091 3.091-3.091h-41.722c-1.707 0-3.091 1.384-3.091 3.091v23.043c0 1.707 1.384 3.091 3.091 3.091h41.722c-1.707 0-3.091-1.384-3.091-3.091z" fill="#fe9901"/></g></g></g></svg>