<svg id="Capa_1" enable-background="new 0 0 512 512" height="512" viewBox="0 0 512 512" width="512" xmlns="http://www.w3.org/2000/svg"><g><g><g><path d="m348.27 96.591v-64.099c0-2.803-2.272-5.075-5.075-5.075h-65.524c-2.803 0-5.075 2.272-5.075 5.075v64.099z" fill="#fd4755"/><path d="m304.166 96.591v-64.099c0-2.803 2.272-5.075 5.075-5.075h-31.571c-2.803 0-5.075 2.272-5.075 5.075v64.099z" fill="#fb2b3a"/><path d="m301.803 96.591v-20.287c0-2.803-2.272-5.075-5.075-5.075h-65.524c-2.803 0-5.075 2.272-5.075 5.075v20.288h75.674z" fill="#faea5e"/><path d="m258.03 96.591v-20.287c0-2.803 2.272-5.075 5.076-5.075h-31.902c-2.803 0-5.075 2.272-5.075 5.075v20.288h31.901z" fill="#ffd600"/><path d="m239.405 96.591v-44.184c0-2.803-2.272-5.075-5.075-5.075h-65.524c-2.803 0-5.075 2.272-5.075 5.075v44.185h75.674z" fill="#80d261"/><path d="m195.551 96.591v-44.185c0-2.803 2.272-5.075 5.075-5.075h-31.822c-2.803 0-5.075 2.272-5.075 5.075v44.185z" fill="#68ca44"/></g><g><path d="m382.249 275.354c.044-.327.074-.659.074-.998v-169.765l39.251-94.204c1.593-3.824-.215-8.215-4.038-9.808-3.824-1.593-8.215.214-9.808 4.038l-37.906 90.974h-232.645c-4.142 0-7.5 3.358-7.5 7.5v171.265c0 .339.03.671.074.998z" fill="#01c0fa"/><path d="m129.677 104.591v169.765c0 .339.03.671.074.998h41.677c-.044-.327-.074-.659-.074-.998v-171.265c0-4.142 3.358-7.5 7.5-7.5h-36.677l-37.906-90.974c-1.593-3.823-5.985-5.632-9.808-4.038-3.823 1.593-5.631 5.984-4.038 9.808z" fill="#08a9f1"/><path d="m257 275.354-1-1h-92.934l-1 1v58.354c0 1.127-.917 2.045-2.045 2.045h-45.687c-1.128 0-2.045-.917-2.045-2.045v-58.354l-1-1h-87.86c-2.803 0-5.075 2.272-5.075 5.075v227.495c0 2.803 2.272 5.075 5.075 5.075h232.571l1-1z" fill="#ea9b58"/><g><path d="m342.291 242.496h-45.687c-1.682 0-3.045-1.363-3.045-3.045v-56.308c0-1.682 1.363-3.045 3.045-3.045h45.687c1.682 0 3.045 1.363 3.045 3.045v56.308c0 1.681-1.363 3.045-3.045 3.045z" fill="#fff"/></g><g><path d="m314.875 239.45v-56.308c0-1.682 1.363-3.045 3.045-3.045h-21.317c-1.682 0-3.045 1.363-3.045 3.045v56.308c0 1.682 1.363 3.045 3.045 3.045h21.317c-1.681.001-3.045-1.363-3.045-3.045z" fill="#f2fbff"/></g><g><g><path d="m185.636 240.699h-11.949c-4.142 0-7.5-3.358-7.5-7.5s3.358-7.5 7.5-7.5h11.949c4.142 0 7.5 3.358 7.5 7.5s-3.358 7.5-7.5 7.5z" fill="#fff"/></g></g></g></g><g><g><g><path d="m60.988 506.925v-227.496c0-2.803 2.272-5.075 5.075-5.075h-42.634c-2.803 0-5.075 2.272-5.075 5.075v227.495c0 2.803 2.272 5.075 5.075 5.075h42.634c-2.803.001-5.075-2.271-5.075-5.074z" fill="#d88a55"/></g><g><path d="m160.021 336.753h-45.687c-1.682 0-3.045-1.363-3.045-3.045v-59.353h51.778v59.353c-.001 1.681-1.365 3.045-3.046 3.045z" fill="#fd4755"/></g><g><path d="m132.159 333.707v-59.353h-20.871v59.353c0 1.682 1.363 3.045 3.045 3.045h20.871c-1.682.001-3.045-1.363-3.045-3.045z" fill="#fb2b3a"/></g><g><g><path d="m219.49 478.343h-37.174c-4.142 0-7.5-3.358-7.5-7.5s3.358-7.5 7.5-7.5h37.174c4.142 0 7.5 3.358 7.5 7.5s-3.358 7.5-7.5 7.5z" fill="#ffbd86"/></g><g><path d="m66.813 478.343h-11.949c-4.142 0-7.5-3.358-7.5-7.5s3.358-7.5 7.5-7.5h11.949c4.142 0 7.5 3.358 7.5 7.5s-3.358 7.5-7.5 7.5z" fill="#ffbd86"/></g></g></g><g><path d="m488.571 274.354h-87.859l-1 1v58.354c0 1.127-.917 2.045-2.045 2.045h-45.687c-1.128 0-2.045-.917-2.045-2.045v-58.354l-1-1h-92.935v237.646h232.571c2.803 0 5.075-2.272 5.075-5.075v-227.495c0-2.804-2.272-5.076-5.075-5.076z" fill="#faea5e"/><g><path d="m256 274.354h43.534v237.646h-43.534z" fill="#ffd600"/></g><g><path d="m397.667 336.753h-45.687c-1.682 0-3.045-1.363-3.045-3.045v-59.353h51.778v59.353c-.001 1.681-1.365 3.045-3.046 3.045z" fill="#fd4755"/></g><g><path d="m369.69 333.707v-59.353h-20.756v59.353c0 1.682 1.363 3.045 3.045 3.045h20.756c-1.681.001-3.045-1.363-3.045-3.045z" fill="#fb2b3a"/></g><g><g><path d="m457.136 478.343h-37.174c-4.142 0-7.5-3.358-7.5-7.5s3.358-7.5 7.5-7.5h37.174c4.142 0 7.5 3.358 7.5 7.5s-3.358 7.5-7.5 7.5z" fill="#fef495"/></g><g><path d="m304.459 478.343h-11.949c-4.142 0-7.5-3.358-7.5-7.5s3.358-7.5 7.5-7.5h11.949c4.142 0 7.5 3.358 7.5 7.5s-3.358 7.5-7.5 7.5z" fill="#fef495"/></g></g></g></g></g></svg>