<svg id="Capa_1" enable-background="new 0 0 512 512" height="512" viewBox="0 0 512 512" width="512" xmlns="http://www.w3.org/2000/svg"><g><g><path d="m82 363.625v-33.765h-54.385l15.736 35.104c1.612 3.595 5.185 5.909 9.125 5.909h24.501c1.394-2.612 3.085-5.041 5.023-7.248z" fill="#8d9ca8"/><path d="m82 329.86v33.765c7.014-7.987 17.293-13.035 28.757-13.035 21.135 0 38.268 17.133 38.268 38.268 0 .717-.024 1.428-.062 2.135h28.1c-.039-.707-.062-1.418-.062-2.135 0-21.135 17.133-38.268 38.268-38.268s38.268 17.133 38.268 38.268c0 .717-.024 1.428-.062 2.135h124.175c-.039-.707-.063-1.418-.063-2.135 0-21.135 17.133-38.268 38.268-38.268s38.268 17.133 38.268 38.268c0 .717-.024 1.428-.063 2.135h40.44c5.523 0 10-4.477 10-10v-51.133z" fill="#9facba"/><g><path d="m363.054 175.252v154.608h141.446v-78.722c0-4.028-.973-7.997-2.838-11.568l-26.561-50.887c-4.309-8.256-12.85-13.432-22.163-13.432h-89.884z" fill="#faea5e"/></g><g><path d="m477.973 248.213-23.632-45.275c-.862-1.651-2.57-2.686-4.432-2.686h-35.909c-1.105 0-2 .895-2 2v38.887c0 5.523 4.477 10 10 10h54.2c1.502 0 2.468-1.594 1.773-2.926z" fill="#fff"/></g><g><path d="m433 241.139v-38.887c0-1.105.896-2 2-2h-21c-1.104 0-2 .895-2 2v38.887c0 5.523 4.477 10 10 10h21c-5.523 0-10-4.477-10-10z" fill="#f2fbff"/></g><g><circle cx="415.854" cy="388.858" fill="#596c76" r="38.268"/></g><g><path d="m398.464 388.858c0-17.514 11.77-32.27 27.829-36.815-3.32-.94-6.818-1.453-10.439-1.453-21.135 0-38.268 17.133-38.268 38.268s17.133 38.268 38.268 38.268c3.621 0 7.119-.514 10.439-1.453-16.059-4.545-27.829-19.301-27.829-36.815z" fill="#465a61"/></g><path d="m415.854 402.126c-7.315 0-13.268-5.952-13.268-13.268s5.952-13.268 13.268-13.268 13.269 5.952 13.269 13.268-5.953 13.268-13.269 13.268z" fill="#fff"/><g><circle cx="215.268" cy="388.858" fill="#596c76" r="38.268"/></g><g><path d="m198 388.858c0-17.492 11.741-32.232 27.768-36.797-3.338-.951-6.857-1.471-10.5-1.471-21.135 0-38.268 17.133-38.268 38.268s17.133 38.268 38.268 38.268c3.643 0 7.162-.52 10.5-1.471-16.027-4.565-27.768-19.305-27.768-36.797z" fill="#465a61"/></g><circle cx="215.268" cy="388.858" fill="#fff" r="13.268"/><g><circle cx="110.757" cy="388.858" fill="#596c76" r="38.268"/></g><g><path d="m93.464 388.858c0-17.497 11.747-32.24 27.781-36.801-3.334-.948-6.849-1.467-10.487-1.467-21.135 0-38.268 17.133-38.268 38.268s17.133 38.268 38.268 38.268c3.638 0 7.153-.519 10.487-1.467-16.034-4.561-27.781-19.304-27.781-36.801z" fill="#465a61"/></g><circle cx="110.757" cy="388.858" fill="#fff" r="13.268"/><g><path d="m363.054 329.86h-350.554c-2.761 0-5-2.239-5-5v-234.986c0-2.761 2.239-5 5-5h345.554c2.761 0 5 2.239 5 5z" fill="#01c0fa"/></g><g><path d="m49.446 324.86v-234.986c0-2.761 2.239-5 5-5h-41.946c-2.761 0-5 2.239-5 5v234.986c0 2.761 2.239 5 5 5h41.946c-2.761 0-5-2.239-5-5z" fill="#08a9f1"/></g><g><path d="m7.5 123.874h355.554v166.986h-355.554z" fill="#08a9f1"/></g><g><path d="m7.5 123.874h41.946v166.986h-41.946z" fill="#0290cf"/></g><g><path d="m241.333 220.367h-112.113c-1.657 0-3-1.343-3-3v-20c0-1.657 1.343-3 3-3h112.113c1.657 0 3 1.343 3 3v20c0 1.657-1.343 3-3 3z" fill="#fff"/></g><g><path d="m157.887 217.367v-20c0-1.657 1.343-3 3-3h-31.667c-1.657 0-3 1.343-3 3v20c0 1.657 1.343 3 3 3h31.667c-1.657 0-3-1.343-3-3z" fill="#f2fbff"/></g></g><g><path d="m415.854 368.09c-11.451 0-20.768 9.316-20.768 20.768s9.316 20.768 20.768 20.768 20.769-9.316 20.769-20.768-9.317-20.768-20.769-20.768zm0 26.536c-3.181 0-5.768-2.587-5.768-5.768s2.587-5.768 5.768-5.768 5.769 2.587 5.769 5.768-2.589 5.768-5.769 5.768z"/><path d="m215.268 409.626c11.452 0 20.768-9.316 20.768-20.768s-9.316-20.768-20.768-20.768-20.768 9.316-20.768 20.768 9.316 20.768 20.768 20.768zm0-26.536c3.181 0 5.768 2.587 5.768 5.768s-2.587 5.768-5.768 5.768-5.768-2.587-5.768-5.768 2.587-5.768 5.768-5.768z"/><path d="m110.757 409.626c11.452 0 20.768-9.316 20.768-20.768s-9.316-20.768-20.768-20.768-20.768 9.316-20.768 20.768 9.317 20.768 20.768 20.768zm0-26.536c3.181 0 5.768 2.587 5.768 5.768s-2.587 5.768-5.768 5.768-5.768-2.587-5.768-5.768 2.588-5.768 5.768-5.768z"/><path d="m129.22 227.867h112.113c5.79 0 10.5-4.71 10.5-10.5v-20c0-5.79-4.71-10.5-10.5-10.5h-112.113c-5.79 0-10.5 4.71-10.5 10.5v20c0 5.79 4.711 10.5 10.5 10.5zm4.5-26h103.113v11h-103.113z"/><path d="m460.989 199.467c-2.163-4.142-6.409-6.715-11.081-6.715h-35.908c-5.238 0-9.5 4.262-9.5 9.5v38.887c0 9.649 7.851 17.5 17.5 17.5h54.2c3.351 0 6.388-1.711 8.125-4.577 1.735-2.865 1.847-6.349.296-9.319zm-38.989 44.172c-1.379 0-2.5-1.122-2.5-2.5v-33.387h28.893l18.732 35.887z"/><path d="m508.311 236.1-26.562-50.887c-5.621-10.771-16.66-17.461-28.811-17.461h-82.385v-77.878c0-6.893-5.607-12.5-12.5-12.5h-345.553c-6.893 0-12.5 5.607-12.5 12.5v234.986c0 6.893 5.607 12.5 12.5 12.5h10.258l13.75 30.672c2.816 6.282 9.084 10.342 15.969 10.342h13.739c-.793 3.369-1.226 6.876-1.226 10.484 0 25.236 20.531 45.768 45.768 45.768 21.932 0 40.301-15.509 44.739-36.133h15.033c4.438 20.624 22.807 36.133 44.739 36.133s40.301-15.509 44.739-36.133h18.992c4.143 0 7.5-3.358 7.5-7.5s-3.357-7.5-7.5-7.5h-18.289c-2.666-22.716-22.022-40.403-45.443-40.403s-42.777 17.687-45.443 40.403h-13.625c-2.666-22.716-22.022-40.403-45.443-40.403-7.67 0-14.901 1.906-21.257 5.255v-10.985h407.5v43.633c0 1.378-1.121 2.5-2.5 2.5h-33.203c-2.666-22.716-22.022-40.403-45.444-40.403-23.42 0-42.777 17.687-45.443 40.403h-56.41c-4.143 0-7.5 3.358-7.5 7.5s3.357 7.5 7.5 7.5h57.115c4.438 20.624 22.807 36.133 44.738 36.133 21.932 0 40.302-15.509 44.739-36.133h33.908c9.649 0 17.5-7.851 17.5-17.5v-129.854c0-5.216-1.275-10.416-3.689-15.039zm-293.043 121.99c16.965 0 30.768 13.803 30.768 30.768s-13.803 30.768-30.768 30.768-30.768-13.802-30.768-30.768 13.803-30.768 30.768-30.768zm-104.511 0c16.965 0 30.768 13.803 30.768 30.768s-13.803 30.768-30.768 30.768-30.768-13.802-30.768-30.768 13.803-30.768 30.768-30.768zm-36.257 2.885c-.603.782-1.187 1.578-1.74 2.399h-20.284c-.983 0-1.879-.58-2.281-1.478l-11-24.536h35.305zm281.054-38.615h-340.554v-24h340.554zm0-205.986h-247.554c-4.142 0-7.5 3.358-7.5 7.5s3.358 7.5 7.5 7.5h247.554v151.986h-340.554v-151.986h58c4.142 0 7.5-3.358 7.5-7.5s-3.358-7.5-7.5-7.5h-58v-24h340.554zm60.3 303.252c-16.965 0-30.768-13.802-30.768-30.768s13.803-30.768 30.768-30.768c16.966 0 30.769 13.803 30.769 30.768s-13.804 30.768-30.769 30.768zm-45.3-236.874h11.946v34.622h-11.946zm126.446 139.608h-99.5v-18.36c0-4.142-3.357-7.5-7.5-7.5s-7.5 3.358-7.5 7.5v18.36h-11.946v-89.986h11.946v36.626c0 4.142 3.357 7.5 7.5 7.5s7.5-3.358 7.5-7.5v-86.248h55.438c6.542 0 12.486 3.603 15.514 9.402l26.562 50.887c1.3 2.49 1.986 5.29 1.986 8.098z"/><path d="m412 266.374c-4.143 0-7.5 3.358-7.5 7.5v23c0 4.142 3.357 7.5 7.5 7.5s7.5-3.358 7.5-7.5v-23c0-4.142-3.357-7.5-7.5-7.5z"/></g></g></svg>