<svg height="512" viewBox="0 0 256 256" width="512" xmlns="http://www.w3.org/2000/svg"><g fill="#f0c020"><path d="m31.073 38.512c-3.723-1.23-7.568-2.3-9.727-11.6-1.988 8.565-5.173 10.1-9.726 11.6 7.426 2.454 8.546 6.517 9.726 11.6 2.035-8.765 5.401-10.17 9.727-11.6z"/><path d="m211.353 15.946c-3.723-1.23-7.568-2.3-9.726-11.6-1.989 8.564-5.174 10.1-9.727 11.6 7.426 2.454 8.546 6.517 9.727 11.6 2.034-8.766 5.4-10.171 9.726-11.6z"/><path d="m244.38 46.589c-3.723-1.23-7.568-2.306-9.726-11.6-1.989 8.565-5.174 10.1-9.727 11.6 7.426 2.453 8.546 6.517 9.727 11.6 2.034-8.766 5.4-10.171 9.726-11.6z"/></g><path d="m216.705 192.29a11.042 11.042 0 0 0 -15.617 0l-25.628 25.076a9.466 9.466 0 0 1 -6.693 2.772h-48.793a11.263 11.263 0 0 1 -11.358-10.54 11.063 11.063 0 0 1 11.049-11.578h19.766a10.186 10.186 0 0 0 10.259-9.82 10.052 10.052 0 0 0 -10.048-10.287h-41.787a41.283 41.283 0 0 0 -31.769 14.921 21.6 21.6 0 0 1 -16.966 8.232h-4.413v45.091h128.171a12.12 12.12 0 0 0 8.569-3.549l35.253-34.708a11.041 11.041 0 0 0 .005-15.61z" fill="#ffb69f"/><path d="m41.039 191.773h-18.61v59.88h18.61a3.669 3.669 0 0 0 3.668-3.669v-52.542a3.669 3.669 0 0 0 -3.668-3.669z" fill="#f0c020"/><path d="m207.42 42.739h-151.67a5.249 5.249 0 0 0 -5.25 5.25v8.56h-8.56a5.266 5.266 0 0 0 -5.26 5.26v9h-9a5.249 5.249 0 0 0 -5.25 5.25v78.18a5.258 5.258 0 0 0 5.25 5.26h151.67a5.258 5.258 0 0 0 5.25-5.26v-9h9a5.258 5.258 0 0 0 5.26-5.25v-8.56h8.56a5.258 5.258 0 0 0 5.25-5.26v-78.18a5.249 5.249 0 0 0 -5.25-5.25z" fill="#76ffba"/><path d="m173.387 98.513v33.28a16.492 16.492 0 0 0 -16.5 16.487h-106.754a16.484 16.484 0 0 0 -16.486-16.487v-33.28a16.484 16.484 0 0 0 16.486-16.487h106.759a16.492 16.492 0 0 0 16.495 16.487z" fill="#13bf6d"/><path d="m120.941 115.157a17.3 17.3 0 1 1 -17.3-17.308 17.3 17.3 0 0 1 17.3 17.308z" fill="#76ffba"/><path d="m172.878 238.654h-103.866a2.5 2.5 0 0 1 0-5h103.709l35.158-34.606a2.5 2.5 0 1 1 3.508 3.563l-35.2 34.649a4.619 4.619 0 0 1 -3.309 1.394zm-113.866 0h-4.3a2.5 2.5 0 1 1 0-5h4.305a2.5 2.5 0 0 1 0 5z" fill="#fbe0e2"/><path d="m149.553 141.807h-2a2.5 2.5 0 0 1 0-5h2a2.5 2.5 0 0 1 0 5zm-12 0h-80.079a2.5 2.5 0 0 1 -2.339-1.616 23.034 23.034 0 0 0 -13.4-13.4 2.5 2.5 0 0 1 1.768-4.677 28.034 28.034 0 0 1 15.64 14.693h78.41a2.5 2.5 0 0 1 0 5z" fill="#76ffba"/><path d="m31.625 243.193a2.5 2.5 0 0 1 -2.5-2.5v-1.077a2.5 2.5 0 1 1 5 0v1.077a2.5 2.5 0 0 1 -2.5 2.5zm0-11.077a2.5 2.5 0 0 1 -2.5-2.5v-26a2.5 2.5 0 0 1 5 0v26a2.5 2.5 0 0 1 -2.5 2.5z" fill="#f9e5af"/><path d="m31.857 36.138c-3.5-1.154-6.243-1.9-8.076-9.8a2.5 2.5 0 0 0 -4.87 0c-1.792 7.72-4.292 8.546-8.075 9.8a2.5 2.5 0 0 0 0 4.747c6.284 2.077 7 5.147 8.075 9.8a2.5 2.5 0 0 0 4.871 0c1.79-7.719 4.427-8.591 8.075-9.8a2.5 2.5 0 0 0 0-4.747zm-10.457 6.57a12.982 12.982 0 0 0 -3.914-4.139 12.39 12.39 0 0 0 3.874-4.359 12.765 12.765 0 0 0 3.738 4.325 12.382 12.382 0 0 0 -3.698 4.173z"/><path d="m199.192 3.776c-1.793 7.72-4.292 8.546-8.076 9.8a2.5 2.5 0 0 0 0 4.748c6.285 2.076 7 5.147 8.075 9.795a2.5 2.5 0 0 0 4.871 0c1.791-7.719 4.427-8.59 8.075-9.795a2.5 2.5 0 0 0 0-4.748c-3.5-1.154-6.243-1.9-8.075-9.8a2.5 2.5 0 0 0 -4.87 0zm2.444 7.868a12.756 12.756 0 0 0 3.739 4.325 12.375 12.375 0 0 0 -3.7 4.173 12.982 12.982 0 0 0 -3.913-4.142 12.381 12.381 0 0 0 3.874-4.356z"/><path d="m224.143 48.963c6.285 2.076 7 5.147 8.075 9.8a2.5 2.5 0 0 0 4.871 0c1.791-7.719 4.427-8.59 8.075-9.8a2.5 2.5 0 0 0 0-4.748c-3.5-1.155-6.243-1.9-8.075-9.8a2.5 2.5 0 0 0 -4.87 0c-1.793 7.719-4.292 8.546-8.076 9.8a2.5 2.5 0 0 0 0 4.748zm10.52-6.677a12.76 12.76 0 0 0 3.739 4.326 12.371 12.371 0 0 0 -3.7 4.172 12.98 12.98 0 0 0 -3.914-4.138 12.393 12.393 0 0 0 3.875-4.36z"/><path d="m214.12 206.941a2.5 2.5 0 0 0 -.03 3.54 2.552 2.552 0 0 0 3.53.02l.85-.83a13.541 13.541 0 0 0 -19.13-19.17l-25.63 25.08-.02.02a6.922 6.922 0 0 1 -4.92 2.04h-48.8a8.762 8.762 0 0 1 -8.87-8.56 8.6 8.6 0 0 1 8.57-8.56h19.76a12.689 12.689 0 0 0 12.76-12.28 12.562 12.562 0 0 0 -12.55-12.83h-41.78a43.843 43.843 0 0 0 -33.7 15.82l-.04.05a18.966 18.966 0 0 1 -15 7.28h-1.91v-3.12a6.18 6.18 0 0 0 -6.17-6.17h-18.61a2.5 2.5 0 0 0 0 5h18.61a1.178 1.178 0 0 1 1.17 1.17v52.54a1.171 1.171 0 0 1 -1.17 1.17h-18.61a2.5 2.5 0 0 0 0 5h18.61a6.182 6.182 0 0 0 6.132-5.5h125.708a14.556 14.556 0 0 0 10.34-4.28l20.15-19.84a2.5 2.5 0 0 0 .03-3.53 2.565 2.565 0 0 0 -3.54-.03l-20.17 19.85-.01.02a9.578 9.578 0 0 1 -6.8 2.81h-125.67v-40.09h1.91a24.117 24.117 0 0 0 18.9-9.14 38.653 38.653 0 0 1 29.84-14.01h41.78a7.579 7.579 0 0 1 7.55 7.74 7.667 7.667 0 0 1 -7.76 7.37h-19.76a13.575 13.575 0 0 0 -13.55 14.2 13.73 13.73 0 0 0 13.85 12.92h48.8a11.894 11.894 0 0 0 8.44-3.49l25.62-25.07.03-.02a8.538 8.538 0 0 1 12.08 12.07z"/><path d="m206.99 213.951a2.5 2.5 0 1 0 3.53.03 2.562 2.562 0 0 0 -3.53-.03z"/><path d="m119.08 84.531a2.505 2.505 0 1 0 -2.5-2.5 2.507 2.507 0 0 0 2.5 2.5z"/><path d="m173.39 96.011a14.043 14.043 0 0 1 -14-13.98 2.51 2.51 0 0 0 -2.5-2.51h-27.81a2.505 2.505 0 0 0 0 5.01h25.48a18.97 18.97 0 0 0 16.33 16.32v28.61a18.96 18.96 0 0 0 -16.33 16.32h-102.09a18.96 18.96 0 0 0 -16.32-16.32v-28.61a18.97 18.97 0 0 0 16.32-16.32h56.61a2.5 2.5 0 0 0 0-5l-58.95-.01a2.523 2.523 0 0 0 -2.5 2.51 14.033 14.033 0 0 1 -13.98 13.98 2.5 2.5 0 0 0 -2.5 2.5v33.28a2.493 2.493 0 0 0 2.5 2.5 14.041 14.041 0 0 1 13.98 13.99 2.513 2.513 0 0 0 2.5 2.5h106.76a2.493 2.493 0 0 0 2.5-2.5 14.052 14.052 0 0 1 14-13.99 2.5 2.5 0 0 0 2.5-2.5v-33.28a2.5 2.5 0 0 0 -2.5-2.5z"/><path d="m58.582 109.45v11.4a2.5 2.5 0 0 0 5 0v-11.4a2.5 2.5 0 0 0 -5 0z"/><path d="m148.446 120.853v-11.4a2.5 2.5 0 0 0 -5 0v11.4a2.5 2.5 0 0 0 5 0z"/><path d="m103.641 95.349a19.8 19.8 0 1 0 19.8 19.808 19.826 19.826 0 0 0 -19.8-19.808zm0 34.608a15.006 15.006 0 0 1 -8.463-2.669 6.4 6.4 0 0 1 6.391-6.188h4.145a6.4 6.4 0 0 1 6.391 6.188 15 15 0 0 1 -8.464 2.669zm-3.133-16.991a3.133 3.133 0 1 1 3.133 3.134 3.137 3.137 0 0 1 -3.133-3.134zm15.676 10.041a11.451 11.451 0 0 0 -5.613-5.805 8.133 8.133 0 1 0 -13.86 0 11.457 11.457 0 0 0 -5.613 5.8 14.8 14.8 0 1 1 25.086 0z"/><path d="m48 47.991v6.06h-6.06a7.78 7.78 0 0 0 -7.76 7.76v6.5h-6.5a7.763 7.763 0 0 0 -7.75 7.75v78.18a7.763 7.763 0 0 0 7.75 7.75h151.67a7.763 7.763 0 0 0 7.75-7.75v-6.5h6.5a7.772 7.772 0 0 0 7.76-7.75v-6.06h6.06a7.778 7.778 0 0 0 7.75-7.76v-78.18a7.757 7.757 0 0 0 -7.75-7.75h-151.67a7.757 7.757 0 0 0 -7.75 7.75zm134.1 106.25a2.755 2.755 0 0 1 -2.75 2.75h-151.67a2.755 2.755 0 0 1 -2.75-2.75v-78.18a2.761 2.761 0 0 1 2.75-2.75h151.67a2.761 2.761 0 0 1 2.75 2.75zm14.26-14.25a2.77 2.77 0 0 1 -2.76 2.75h-6.5v-66.68a7.763 7.763 0 0 0 -7.75-7.75h-140.17v-6.5a2.766 2.766 0 0 1 2.76-2.76h151.66a2.766 2.766 0 0 1 2.76 2.76zm-143.36-92a2.755 2.755 0 0 1 2.75-2.75h151.67a2.755 2.755 0 0 1 2.75 2.75v78.18a2.763 2.763 0 0 1 -2.75 2.76h-6.06v-67.12a7.78 7.78 0 0 0 -7.76-7.76h-140.6z"/></svg>