<svg height="512" viewBox="0 0 56 60" width="512" xmlns="http://www.w3.org/2000/svg"><g id="050---Sales" fill="none"><g id="Icons" transform="translate(1)"><path id="Shape" d="m52 25v32c0 1.1-2.69 2-6 2-.52 0-1.02-.02-1.5-.06-2.58-.23-4.5-1-4.5-1.94v-32c0-.93 1.92-1.71 4.5-1.93.4984567-.0492074.999127-.072572 1.5-.07 3.31 0 6 .9 6 2z" fill="#fec108"/><path id="Shape" d="m49 25v32c0 .93-1.92 1.71-4.5 1.94-2.58-.23-4.5-1-4.5-1.94v-32c0-.93 1.92-1.71 4.5-1.93 2.58.22 4.5 1 4.5 1.93z" fill="#ffdc00"/><path id="Shape" d="m34 48v8c0 1.6568542-1.3431458 3-3 3h-28c-1.65685425 0-3-1.3431458-3-3v-8c0 1.6568542 1.34314575 3 3 3h28c1.6568542 0 3-1.3431458 3-3z" fill="#707070"/><path id="Shape" d="m0 51v5c0 1.6568542 1.34314575 3 3 3h25c1.6568542 0 3-1.3431458 3-3v-5z" fill="#9e9e9e"/><path id="Shape" d="m34 4v47c0 1.6568542-1.3431458 3-3 3h-28c-1.65685425 0-3-1.3431458-3-3v-47c0-1.65685425 1.34314575-3 3-3 30.26 0 28.3-.06 29 .17 1.1991837.42397528 2.0006668 1.55807381 2 2.83z" fill="#0377bc"/><path id="Shape" d="m31 4v47c0 1.6568542-1.3431458 3-3 3h-25c-1.65685425 0-3-1.3431458-3-3v-47c0-1.65685425 1.34314575-3 3-3 27.27 0 25.31-.06 26 .17 1.1991837.42397528 2.0006668 1.55807381 2 2.83z" fill="#02a9f4"/><path id="Shape" d="m27 1-2.86 3.05c-.5552143.59345073-1.3274375.93626008-2.14.95h-9.9c-.8375997-.01295328-1.6316336-.37552582-2.19-1l-2.91-3z" fill="#707070"/><path id="Shape" d="m24 1-2.86 3.05c-.5552143.59345073-1.3274375.93626008-2.14.95h-6.9c-.8375997-.01295328-1.6316336-.37552582-2.19-1l-2.91-3z" fill="#9e9e9e"/><path id="Shape" d="m54 9c-.0009941 4.2228657-3.2840432 7.7177248-7.498607 7.9823891-4.2145638.2646644-7.909034-2.7920237-8.4383083-6.9815898-.5292742-4.18956608 2.2889437-8.06901185 6.4369153-8.8607993 2.3424862-.44714655 4.7623267.1740809 6.5997452 1.69430291 1.8374184 1.52022201 2.9008162 3.78091592 2.9002548 6.16569709z" fill="#fdd834"/><ellipse id="Oval" cx="44.5" cy="9" fill="#ffeb3a" rx="6.5" ry="7.86"/><ellipse id="Oval" cx="46" cy="25" fill="#ffeb3a" rx="6" ry="2"/><path id="Shape" d="m6 37h3c.55228475 0 1 .4477153 1 1v10h-5v-10c0-.5522847.44771525-1 1-1z" fill="#ef314c"/><path id="Shape" d="m15 30h3c.5522847 0 1 .4477153 1 1v17h-5v-17c0-.5522847.4477153-1 1-1z" fill="#9d27b0"/><path id="Shape" d="m24 24h3c.5522847 0 1 .4477153 1 1v23h-5v-23c0-.5522847.4477153-1 1-1z" fill="#ffdc00"/></g><g id="Layer_10" fill="#000"><path id="Shape" d="m32 60c2.209139 0 4-1.790861 4-4v-52c0-2.209139-1.790861-4-4-4h-28c-2.209139 0-4 1.790861-4 4v52c0 2.209139 1.790861 4 4 4zm-6.31-58-1.28 1.37c-.3666957.39030942-.874608.61724897-1.41.63h-9.9c-.5528207.00080487-1.081318-.2272453-1.46-.63l-1.33-1.37zm-23.69 2c0-1.1045695.8954305-2 2-2h3.57l2.56 2.74c.7573641.8055094 1.8143585 1.26160975 2.92 1.26h9.95c1.1056415.00160975 2.1626359-.4544906 2.92-1.26l2.51-2.74h3.57c1.1045695 0 2 .8954305 2 2v47c0 1.1045695-.8954305 2-2 2h-28c-1.1045695 0-2-.8954305-2-2zm0 52v-1.56c.60399287.3635516 1.29504012.5570448 2 .56h28c.7049599-.0029552 1.3960071-.1964484 2-.56v1.56c0 1.1045695-.8954305 2-2 2h-28c-1.1045695 0-2-.8954305-2-2z"/><path id="Shape" d="m40 25v32c0 4 14 4 14 0v-32c0-4-14-4-14 0zm12 27.91c-.29.35-2 1.09-5 1.09s-4.71-.74-5-1.09v-1.71c3.2477191 1.0684211 6.7522809 1.0684211 10 0zm0-4c-.29.35-2 1.09-5 1.09s-4.71-.74-5-1.09v-1.71c3.2477191 1.0684211 6.7522809 1.0684211 10 0zm0-4c-.29.35-2 1.09-5 1.09s-4.71-.74-5-1.09v-1.71c3.2477191 1.0684211 6.7522809 1.0684211 10 0zm0-4c-.29.35-2 1.09-5 1.09s-4.71-.74-5-1.09v-1.71c3.2477191 1.0684211 6.7522809 1.0684211 10 0zm0-4c-.29.35-2 1.09-5 1.09s-4.71-.74-5-1.09v-1.71c3.2477191 1.0684211 6.7522809 1.0684211 10 0zm0-4c-.29.35-2 1.09-5 1.09s-4.71-.74-5-1.09v-1.71c3.2477191 1.0684211 6.7522809 1.0684211 10 0zm0-4c-.29.35-2 1.09-5 1.09s-4.71-.74-5-1.09v-1.71c3.2477191 1.0684211 6.7522809 1.0684211 10 0zm-5 29.09c-3 0-4.71-.74-5-1.08v-1.72c3.2477191 1.0684211 6.7522809 1.0684211 10 0v1.72c-.29.34-2 1.08-5 1.08zm0-32c-2.76 0-4.44-.63-4.91-1 .47-.37 2.15-1 4.91-1s4.44.63 4.91 1c-.47.37-2.15 1-4.91 1z"/><path id="Shape" d="m47 0c-4.9705627 0-9 4.02943725-9 9 0 4.9705627 4.0294373 9 9 9s9-4.0294373 9-9c0-4.97056275-4.0294373-9-9-9zm0 16c-3.8659932 0-7-3.1340068-7-7 0-3.86599325 3.1340068-7 7-7s7 3.13400675 7 7c0 1.8565154-.7374979 3.6369928-2.0502525 4.9497475-1.3127547 1.3127546-3.0932321 2.0502525-4.9497475 2.0502525z"/><path id="Shape" d="m47 6c.5522847 0 1 .44771525 1 1s.4477153 1 1 1c1.91 0 1-4-2-4-1.6568542.00000002-3 1.34314577-3 3s1.3431458 2.99999998 3 3c.5522847 0 1 .4477153 1 1s-.4477153 1-1 1-1-.4477153-1-1-.4477153-1-1-1c-1.91 0-1 4 2 4 1.6568542 0 2.9999999-1.3431458 2.9999999-3 0-1.65685422-1.3431457-2.99999997-2.9999999-3-.5522847 0-1-.44771525-1-1s.4477153-1 1-1z"/><path id="Shape" d="m5 49h26c.5522847 0 1-.4477153 1-1s-.4477153-1-1-1h-1v-22c0-1.1045695-.8954305-2-2-2h-3c-1.1045695 0-2 .8954305-2 2v22h-2v-16c0-1.1045695-.8954305-2-2-2h-3c-1.1045695 0-2 .8954305-2 2v16h-2v-9c0-1.1045695-.8954305-2-2-2h-3c-1.1045695 0-2 .8954305-2 2v9c-.55228475 0-1 .4477153-1 1s.44771525 1 1 1zm20-24h3v22h-3zm-9 6h3v16h-3zm-9 7h3v9h-3z"/><path id="Shape" d="m6 33c.54 0-1.13 1.3 21-17.82v1.82c0 .5522847.4477153 1 1 1s1-.4477153 1-1c0-4.24 0-4.11-.06-4.35-.48-.86-.44-.65-5.94-.65-.5522847 0-1 .4477153-1 1s.4477153 1 1 1h2.31l-20 17.24c-.32446733.2767433-.43772898.7288057-.28207304 1.1258411.15565593.3970355.54597538.6516712.97207304.6341589z"/></g></g></svg>